<svg xmlns="http://www.w3.org/2000/svg" xmlns:xlink="http://www.w3.org/1999/xlink" viewBox="0 0 32 32"><path d="M 0 0 L 32 0 L 32 32 L 0 32 Z" fill="transparent"></path><path d="M 19.458 5.333 L 19.6 5.34 C 21.935 5.594 23.69 6.137 25.358 7.323 C 25.557 7.465 25.708 7.668 25.788 7.902 C 27.963 14.201 28.54 19.738 27.471 22.456 C 26.308 24.832 24.449 26.667 22.376 26.667 C 21.527 26.667 20.413 25.519 19.677 24.243 C 20.499 24.09 21.312 23.895 22.115 23.659 C 22.731 23.479 23.088 22.822 22.912 22.193 C 22.736 21.563 22.093 21.198 21.477 21.378 C 17.628 22.504 14.37 22.504 10.521 21.378 C 9.905 21.198 9.263 21.563 9.087 22.193 C 8.91 22.822 9.267 23.479 9.883 23.659 C 10.714 23.9 11.525 24.097 12.321 24.244 C 11.585 25.518 10.471 26.667 9.622 26.667 C 7.549 26.667 5.691 24.832 4.488 22.366 C 3.459 19.738 4.036 14.2 6.21 7.902 C 6.291 7.668 6.441 7.465 6.64 7.323 C 8.309 6.137 10.063 5.594 12.398 5.34 C 12.825 5.294 13.242 5.492 13.482 5.856 L 13.555 5.983 L 14.31 7.506 L 14.469 7.487 C 15.487 7.38 16.514 7.38 17.533 7.487 L 17.688 7.506 L 18.442 5.984 C 18.613 5.637 18.94 5.398 19.316 5.344 Z M 12.521 13.63 C 11.376 13.63 10.402 14.484 10.229 15.641 L 10.208 15.823 L 10.202 16 L 10.208 16.178 C 10.302 17.46 11.379 18.432 12.636 18.367 C 13.892 18.303 14.869 17.227 14.838 15.941 C 14.807 14.656 13.779 13.63 12.521 13.63 Z M 19.477 13.63 C 18.332 13.63 17.359 14.484 17.185 15.641 L 17.164 15.823 L 17.159 16 L 17.164 16.178 C 17.259 17.46 18.336 18.432 19.592 18.367 C 20.849 18.303 21.826 17.227 21.795 15.941 C 21.764 14.656 20.735 13.63 19.477 13.63 Z" fill="rgb(255, 255, 255)"></path></svg>