<svg xmlns="http://www.w3.org/2000/svg" xmlns:xlink="http://www.w3.org/1999/xlink" viewBox="0 0 206.059 22.727"><path d="M 14.167 3.747 C 14.259 3.268 14.316 2.778 14.316 2.276 L 11.107 2.276 C 10.064 2.276 9.078 2.755 8.425 3.595 L 7.164 5.194 L 5.903 3.595 C 5.33 2.872 4.505 2.405 3.611 2.3 C 3.542 2.288 3.485 2.288 3.416 2.288 L 0 2.288 C 0 2.918 0.08 3.525 0.229 4.109 C 0.287 4.342 0.355 4.576 0.436 4.798 C 0.481 4.914 0.516 5.019 0.562 5.124 C 1.651 7.728 4.195 9.572 7.164 9.572 C 10.614 9.572 13.502 7.074 14.167 3.747 Z M 44.737 8.089 C 44.588 7.576 44.393 7.085 44.164 6.607 C 44.129 6.525 44.084 6.455 44.049 6.373 C 43.969 6.222 43.889 6.058 43.808 5.907 C 43.682 5.673 43.545 5.463 43.396 5.241 C 41.482 2.346 38.238 0.455 34.547 0.455 C 31.303 0.455 28.61 1.377 26.535 4.004 C 26.157 4.494 25.79 5.031 25.446 5.638 C 25.389 5.731 25.343 5.825 25.297 5.918 C 25.205 6.105 25.114 6.303 25.022 6.502 C 24.976 6.607 24.93 6.7 24.896 6.805 C 23.75 9.689 23.383 13.436 20.529 15.222 C 19.417 15.98 17.996 16.494 16.414 16.599 C 16.299 16.611 16.185 16.611 16.07 16.622 L 15.726 16.622 C 13.766 16.622 11.989 16.027 10.706 15.058 C 10.305 14.755 9.949 14.416 9.651 14.054 C 9.41 13.762 9.216 13.447 9.055 13.12 C 9.009 13.039 8.975 12.957 8.941 12.875 C 8.734 12.373 8.62 11.848 8.62 11.288 L 5.685 11.288 C 5.685 12.222 5.8 13.132 6.018 14.008 C 6.063 14.183 6.109 14.358 6.155 14.521 C 6.316 15.035 6.499 15.525 6.728 16.004 C 6.763 16.085 6.809 16.167 6.843 16.237 C 6.923 16.389 7.003 16.552 7.084 16.704 C 7.129 16.774 7.175 16.856 7.21 16.926 C 7.301 17.078 7.393 17.218 7.485 17.369 C 7.771 17.801 8.092 18.21 8.436 18.595 C 8.551 18.723 8.665 18.852 8.792 18.969 C 9.032 19.214 9.284 19.447 9.548 19.669 C 10.465 20.439 11.52 21.058 12.666 21.49 C 12.826 21.548 12.998 21.607 13.159 21.665 C 13.915 21.898 14.695 22.062 15.508 22.12 C 15.783 22.144 16.059 22.155 16.334 22.155 L 34.524 22.155 C 38.203 22.155 41.459 20.253 43.373 17.369 L 43.786 16.704 C 43.877 16.552 43.958 16.401 44.038 16.237 C 44.072 16.155 44.118 16.085 44.152 16.004 C 44.382 15.525 44.565 15.035 44.725 14.521 C 44.783 14.346 44.829 14.183 44.863 14.008 C 45.081 13.144 45.195 12.233 45.195 11.288 C 45.195 10.354 45.081 9.443 44.863 8.568 C 44.84 8.428 44.783 8.253 44.737 8.089 Z M 40.45 6.642 L 40.416 6.852 C 40.37 7.031 40.274 7.193 40.141 7.319 C 40.095 7.366 40.049 7.401 40.003 7.436 C 39.98 7.447 39.957 7.471 39.934 7.482 C 39.9 7.506 39.866 7.517 39.831 7.541 C 39.797 7.564 39.751 7.576 39.716 7.587 L 39.579 7.622 C 39.51 7.634 39.441 7.646 39.373 7.646 C 39.315 7.646 39.247 7.634 39.189 7.634 C 39.12 7.622 39.063 7.611 39.006 7.576 C 38.994 7.576 38.983 7.564 38.971 7.564 C 38.845 7.506 38.719 7.424 38.616 7.319 C 38.192 6.887 38.192 6.175 38.616 5.743 C 38.719 5.638 38.845 5.556 38.971 5.498 C 38.983 5.498 38.994 5.486 39.006 5.486 C 39.063 5.463 39.132 5.451 39.189 5.44 C 39.247 5.428 39.315 5.416 39.373 5.416 C 39.441 5.416 39.51 5.428 39.579 5.44 L 39.716 5.475 C 39.762 5.486 39.797 5.498 39.831 5.521 C 39.866 5.533 39.9 5.556 39.934 5.58 C 39.957 5.591 39.98 5.615 40.003 5.626 C 40.049 5.661 40.095 5.696 40.141 5.743 C 40.278 5.883 40.37 6.047 40.416 6.21 C 40.439 6.28 40.45 6.35 40.45 6.42 Z" fill="rgb(75,235,226)"></path><path d="M 56.325 10.097 C 54.205 9.817 53.196 9.689 53.196 8.836 C 53.196 8.241 53.781 7.728 55.362 7.728 C 57.047 7.728 57.781 8.288 57.884 9.117 L 61.392 9.117 C 61.265 6.373 59.099 4.599 55.615 4.599 C 51.958 4.599 49.666 6.093 49.666 9.047 C 49.666 11.533 51.282 12.77 54.583 13.202 C 57.334 13.587 58.136 13.844 58.136 14.661 C 58.136 15.478 57.334 15.794 55.786 15.794 C 53.849 15.794 53.093 15.198 52.99 14.381 L 49.482 14.381 C 49.585 17.124 51.775 18.922 55.534 18.922 C 59.294 18.922 61.667 17.334 61.667 14.474 C 61.667 11.836 59.878 10.552 56.325 10.097 Z M 69.736 4.599 C 65.747 4.599 63.099 7.272 62.882 11.51 C 62.836 12.28 62.801 12.945 62.801 13.973 L 62.801 22.727 L 66.435 22.727 L 66.435 17.124 C 67.237 18.198 68.601 18.817 70.321 18.817 C 74 18.817 76.831 15.864 76.831 11.965 C 76.82 7.728 74.195 4.599 69.736 4.599 Z M 69.805 15.385 C 67.764 15.385 66.446 13.973 66.446 11.743 C 66.446 9.513 67.81 8.066 69.805 8.066 C 71.799 8.066 73.186 9.607 73.186 11.743 C 73.186 13.867 71.822 15.385 69.805 15.385 Z M 78.207 0 L 81.863 0 L 81.863 18.618 L 78.207 18.618 Z M 97.268 11.323 C 97.016 7.261 94.265 4.599 90.379 4.599 C 86.07 4.599 83.238 7.529 83.238 12 C 83.238 16.155 85.886 18.934 89.841 18.934 C 91.858 18.934 93.394 18.245 94.231 16.879 L 94.277 18.63 L 97.601 18.63 L 97.429 14.801 C 97.371 13.015 97.325 12.303 97.268 11.323 Z M 90.311 15.537 C 88.213 15.537 86.906 14.101 86.906 11.813 C 86.906 9.525 88.293 8.066 90.311 8.066 C 92.328 8.066 93.635 9.584 93.635 11.813 C 93.646 14.229 92.305 15.537 90.311 15.537 Z M 105.338 10.097 C 103.217 9.817 102.208 9.689 102.208 8.836 C 102.208 8.241 102.793 7.728 104.375 7.728 C 106.06 7.728 106.793 8.288 106.896 9.117 L 110.404 9.117 C 110.278 6.373 108.111 4.599 104.627 4.599 C 100.982 4.599 98.689 6.082 98.689 9.035 C 98.689 11.521 100.306 12.759 103.607 13.19 C 106.358 13.576 107.16 13.832 107.16 14.65 C 107.16 15.467 106.358 15.782 104.81 15.782 C 102.873 15.782 102.117 15.187 102.014 14.369 L 98.506 14.369 C 98.609 17.113 100.799 18.91 104.558 18.91 C 108.318 18.91 110.69 17.323 110.69 14.463 C 110.69 11.836 108.902 10.552 105.338 10.097 Z M 119.459 4.599 C 117.717 4.599 116.479 5.113 115.654 6.035 L 115.699 0 L 112.043 0 L 112.043 18.618 L 115.699 18.618 L 115.699 11.346 C 115.699 9.21 116.628 7.961 118.68 7.961 C 120.72 7.961 121.408 9.035 121.408 11.089 L 121.408 18.618 L 125.064 18.618 L 125.064 10.447 C 125.064 6.98 122.772 4.599 119.459 4.599 Z M 138.83 10.097 C 136.71 9.817 135.701 9.689 135.701 8.836 C 135.701 8.241 136.285 7.728 137.867 7.728 C 139.552 7.728 140.286 8.288 140.389 9.117 L 143.896 9.117 C 143.77 6.373 141.604 4.599 138.119 4.599 C 134.463 4.599 132.171 6.093 132.171 9.047 C 132.171 11.533 133.787 12.77 137.088 13.202 C 139.839 13.587 140.641 13.844 140.641 14.661 C 140.641 15.478 139.839 15.794 138.291 15.794 C 136.354 15.794 135.598 15.198 135.495 14.381 L 131.987 14.381 C 132.09 17.124 134.28 18.922 138.039 18.922 C 141.799 18.922 144.171 17.334 144.171 14.474 C 144.171 11.836 142.383 10.552 138.83 10.097 Z M 152.241 4.599 C 148.252 4.599 145.604 7.272 145.386 11.51 C 145.341 12.28 145.306 12.945 145.306 13.973 L 145.306 22.727 L 148.94 22.727 L 148.94 17.124 C 149.742 18.198 151.106 18.817 152.825 18.817 C 156.505 18.817 159.336 15.864 159.336 11.965 C 159.336 7.728 156.711 4.599 152.241 4.599 Z M 152.321 15.385 C 150.281 15.385 148.963 13.973 148.963 11.743 C 148.963 9.513 150.327 8.066 152.321 8.066 C 154.315 8.066 155.702 9.607 155.702 11.743 C 155.702 13.867 154.338 15.385 152.321 15.385 Z M 167.531 4.599 C 163.394 4.599 160.471 7.552 160.471 11.766 C 160.471 15.98 163.394 18.934 167.531 18.934 C 171.669 18.934 174.592 15.98 174.592 11.766 C 174.592 7.552 171.658 4.599 167.531 4.599 Z M 167.497 15.455 C 165.503 15.455 164.116 13.938 164.116 11.755 C 164.116 9.572 165.526 8.031 167.52 8.031 C 169.514 8.031 170.924 9.572 170.924 11.755 C 170.924 13.938 169.514 15.455 167.497 15.455 Z M 175.853 11.404 L 175.853 18.618 L 179.509 18.618 L 179.509 11.404 C 179.509 9.245 180.186 8.475 182.329 8.475 L 183.166 8.475 L 183.166 5.008 L 182.031 5.008 C 177.939 5.008 175.853 7.167 175.853 11.404 Z M 187.819 12.07 L 187.819 8.346 L 192.313 8.346 L 192.313 5.008 L 187.819 5.008 L 187.819 1.588 L 184.163 1.588 L 184.163 11.58 C 184.163 16.587 186.41 18.618 190.066 18.618 L 192.003 18.618 L 192.404 15.152 C 192.278 15.152 192.049 15.175 190.811 15.175 C 188.908 15.175 187.819 14.661 187.819 12.07 Z M 200.21 10.097 C 198.09 9.817 197.081 9.689 197.081 8.836 C 197.081 8.241 197.666 7.728 199.247 7.728 C 200.932 7.728 201.666 8.288 201.769 9.117 L 205.276 9.117 C 205.15 6.373 202.984 4.599 199.499 4.599 C 195.843 4.599 193.551 6.093 193.551 9.047 C 193.551 11.533 195.167 12.77 198.468 13.202 C 201.219 13.587 202.021 13.844 202.021 14.661 C 202.021 15.478 201.219 15.794 199.671 15.794 C 197.734 15.794 196.978 15.198 196.875 14.381 L 193.367 14.381 C 193.47 17.124 195.66 18.922 199.419 18.922 C 203.179 18.922 205.551 17.334 205.551 14.474 C 205.551 11.836 203.763 10.552 200.21 10.097 Z" fill="rgb(255,255,255)"></path></svg>