<svg width="36" height="24" viewBox="0 0 36 24" fill="none" xmlns="http://www.w3.org/2000/svg">
<rect x="6" width="24" height="24" rx="12" fill="#DA46FF"/>
<path d="M17.1211 18.1094C17.1211 17.9688 17.1289 17.8594 17.1445 17.7812C17.1758 17.6875 17.2695 17.6016 17.4258 17.5234C17.4414 17.5078 17.4805 17.5 17.543 17.5C17.6055 17.4844 17.668 17.4688 17.7305 17.4531C17.8086 17.4375 17.8711 17.4297 17.918 17.4297C17.9805 17.4141 18.0195 17.4062 18.0352 17.4062C18.1289 17.3906 18.2305 17.3516 18.3398 17.2891C18.4648 17.2109 18.582 17.1328 18.6914 17.0547C18.8164 16.9609 18.9258 16.875 19.0195 16.7969C19.1133 16.7188 19.1836 16.6641 19.2305 16.6328C19.6836 16.2422 19.9883 15.8125 20.1445 15.3438C20.3164 14.875 20.4023 14.3516 20.4023 13.7734C20.4023 13.6953 20.4023 13.5859 20.4023 13.4453C20.4023 13.3047 20.3945 13.1641 20.3789 13.0234C20.3789 12.8672 20.3555 12.7344 20.3086 12.625C20.2617 12.5 20.1914 12.4141 20.0977 12.3672C20.0664 12.3516 19.9883 12.3438 19.8633 12.3438C19.7539 12.3438 19.6836 12.3438 19.6523 12.3438C19.293 12.3438 18.9492 12.4219 18.6211 12.5781C18.3086 12.7188 17.9961 12.8828 17.6836 13.0703C17.3867 13.2422 17.0742 13.4062 16.7461 13.5625C16.4336 13.7031 16.0898 13.7734 15.7148 13.7734C15.4648 13.7734 15.2695 13.6953 15.1289 13.5391C14.9883 13.3672 14.918 13.1641 14.918 12.9297C14.918 12.6797 15.0664 12.3438 15.3633 11.9219C15.6602 11.5 15.9961 11.0547 16.3711 10.5859C16.7461 10.1172 17.1133 9.65625 17.4727 9.20312C17.832 8.73438 18.082 8.33594 18.2227 8.00781H18.0352C17.6758 8.00781 17.3477 8.08594 17.0508 8.24219C16.7539 8.38281 16.4727 8.53906 16.207 8.71094C15.9414 8.88281 15.6758 9.04688 15.4102 9.20312C15.1602 9.34375 14.8945 9.41406 14.6133 9.41406C14.4102 9.41406 14.1992 9.36719 13.9805 9.27344C13.7617 9.16406 13.6523 8.97656 13.6523 8.71094C13.6523 8.49219 13.7695 8.27344 14.0039 8.05469C14.2383 7.82031 14.543 7.60938 14.918 7.42188C15.293 7.21875 15.707 7.03125 16.1602 6.85938C16.6289 6.6875 17.082 6.53906 17.5195 6.41406C17.9727 6.28906 18.3867 6.19531 18.7617 6.13281C19.1367 6.05469 19.4258 6.01562 19.6289 6.01562C20.207 6.01562 20.4961 6.32031 20.4961 6.92969V7.23438C20.2305 7.9375 19.9102 8.57031 19.5352 9.13281C19.1602 9.67969 18.7852 10.2656 18.4102 10.8906H18.6445C18.8633 10.8906 19.0586 10.875 19.2305 10.8438C19.418 10.8125 19.6211 10.7969 19.8398 10.7969C20.4648 10.7969 20.957 11 21.3164 11.4062C21.6758 11.7969 21.9336 12.2812 22.0898 12.8594C22.0898 12.9375 22.0898 13.1016 22.0898 13.3516C22.1055 13.5859 22.1133 13.7344 22.1133 13.7969C22.1133 14.8438 21.8945 15.7422 21.457 16.4922C21.0195 17.2266 20.3711 17.8906 19.5117 18.4844C19.0742 18.8281 18.5977 19 18.082 19C17.832 19 17.6055 18.9141 17.4023 18.7422C17.2148 18.5547 17.1211 18.3438 17.1211 18.1094Z" fill="white"/>
<path d="M31 4.5L34.5 3" stroke="#DA46FF" stroke-width="1.75" stroke-linecap="round"/>
<path d="M31 19L34.5 20.5" stroke="#DA46FF" stroke-width="1.75" stroke-linecap="round"/>
<path d="M5 19L1.5 20.5" stroke="#DA46FF" stroke-width="1.75" stroke-linecap="round"/>
<path d="M5 4.5L1.5 3" stroke="#DA46FF" stroke-width="1.75" stroke-linecap="round"/>
</svg>
