<svg width="24" height="24" viewBox="0 0 24 24" fill="none" xmlns="http://www.w3.org/2000/svg">
<g clip-path="url(#clip0_2_2625)">
<rect width="24" height="24" rx="12" fill="#4BEBE2"/>
<path d="M8.33203 17.1094C8.33203 16.9844 8.33984 16.8906 8.35547 16.8281C8.38672 16.7656 8.44922 16.6641 8.54297 16.5234C8.96484 15.8672 9.38672 15.2109 9.80859 14.5547C10.2461 13.8828 10.6367 13.2031 10.9805 12.5156C11.3398 11.8125 11.6289 11.0938 11.8477 10.3594C12.0664 9.625 12.1758 8.85938 12.1758 8.0625C11.707 8.0625 11.293 8.20312 10.9336 8.48438C10.5742 8.76562 10.2305 9.07812 9.90234 9.42188C9.57422 9.76562 9.25391 10.0781 8.94141 10.3594C8.62891 10.6406 8.29297 10.7812 7.93359 10.7812C7.82422 10.7812 7.70703 10.7734 7.58203 10.7578C7.45703 10.7266 7.33984 10.6875 7.23047 10.6406C7.12109 10.5781 7.02734 10.5 6.94922 10.4062C6.87109 10.2969 6.83203 10.1719 6.83203 10.0312V9.98438C6.92578 9.78125 7.05859 9.58594 7.23047 9.39844C7.40234 9.19531 7.58984 9.00781 7.79297 8.83594C7.99609 8.64844 8.19922 8.47656 8.40234 8.32031C8.60547 8.16406 8.78516 8.02344 8.94141 7.89844C9.16016 7.71094 9.41016 7.51562 9.69141 7.3125C9.97266 7.10938 10.2617 6.92188 10.5586 6.75C10.8711 6.5625 11.1914 6.41406 11.5195 6.30469C11.8477 6.17969 12.1758 6.11719 12.5039 6.11719C13.0664 6.11719 13.457 6.29688 13.6758 6.65625C13.8945 7 14.0039 7.44531 14.0039 7.99219C14.0039 9.02344 13.8242 10.0391 13.4648 11.0391C13.1211 12.0234 12.6992 12.9609 12.1992 13.8516V13.9453L11.5898 15.0234H11.8008C12.457 14.6484 13.1602 14.3359 13.9102 14.0859C14.6758 13.8203 15.4258 13.6016 16.1602 13.4297H16.2539C16.5352 13.4297 16.7695 13.4766 16.957 13.5703C17.1445 13.6641 17.2383 13.8828 17.2383 14.2266C17.2383 14.4609 17.1758 14.6641 17.0508 14.8359C16.9258 14.8672 16.7617 14.9141 16.5586 14.9766C16.3711 15.0391 16.207 15.0547 16.0664 15.0234L13.7695 15.8438L10.0195 17.8125C9.76953 17.9375 9.51953 18 9.26953 18C9.05078 18 8.83984 17.9141 8.63672 17.7422C8.43359 17.5547 8.33203 17.3438 8.33203 17.1094Z" fill="black"/>
</g>
<defs>
<clipPath id="clip0_2_2625">
<rect width="24" height="24" rx="12" fill="white"/>
</clipPath>
</defs>
</svg>
