<svg width="24" height="24" viewBox="0 0 24 24" fill="none" xmlns="http://www.w3.org/2000/svg">
<rect width="24" height="24" rx="12" fill="#DA46FF"/>
<path d="M11.102 17.2109C11.068 16.9007 11.0425 16.6107 11.0255 16.3409C11.0255 16.0712 11.017 15.8081 11 15.5518C11 15.2821 11 15.0191 11 14.7628C11 14.493 11 14.203 11 13.8928C11 12.8407 11.068 11.8021 11.2041 10.7769C11.3571 9.73832 11.4677 8.69297 11.5357 7.64087C11.5357 7.51947 11.5272 7.36436 11.5102 7.17552C11.5102 6.97319 11.5357 6.78435 11.5867 6.609C11.6378 6.42017 11.7313 6.27179 11.8673 6.16388C12.0034 6.04249 12.216 5.98853 12.5051 6.00202C12.7772 6.029 12.9898 6.11668 13.1429 6.26505C13.2959 6.41342 13.415 6.58877 13.5 6.7911C13.3299 8.15343 13.1684 9.51576 13.0153 10.8781C12.8793 12.2269 12.8112 13.596 12.8112 14.9853C12.8112 15.3091 12.8282 15.6328 12.8622 15.9565C12.9133 16.2802 12.9388 16.6039 12.9388 16.9277C12.9388 17.0356 12.9303 17.1502 12.9133 17.2716C12.8963 17.393 12.8622 17.5077 12.8112 17.6156C12.7602 17.7235 12.6752 17.8179 12.5561 17.8988C12.4541 17.9663 12.318 18 12.148 18C11.8418 18 11.6122 17.9191 11.4592 17.7572C11.3061 17.5953 11.1871 17.4133 11.102 17.2109Z" fill="white"/>
</svg>
