<svg width="24" height="24" viewBox="0 0 24 24" fill="none" xmlns="http://www.w3.org/2000/svg">
<rect width="24" height="24" rx="12" fill="#4BEBE2"/>
<path d="M11.1211 18.1094C11.1211 17.9688 11.1289 17.8594 11.1445 17.7812C11.1758 17.6875 11.2695 17.6016 11.4258 17.5234C11.4414 17.5078 11.4805 17.5 11.543 17.5C11.6055 17.4844 11.668 17.4688 11.7305 17.4531C11.8086 17.4375 11.8711 17.4297 11.918 17.4297C11.9805 17.4141 12.0195 17.4062 12.0352 17.4062C12.1289 17.3906 12.2305 17.3516 12.3398 17.2891C12.4648 17.2109 12.582 17.1328 12.6914 17.0547C12.8164 16.9609 12.9258 16.875 13.0195 16.7969C13.1133 16.7188 13.1836 16.6641 13.2305 16.6328C13.6836 16.2422 13.9883 15.8125 14.1445 15.3438C14.3164 14.875 14.4023 14.3516 14.4023 13.7734C14.4023 13.6953 14.4023 13.5859 14.4023 13.4453C14.4023 13.3047 14.3945 13.1641 14.3789 13.0234C14.3789 12.8672 14.3555 12.7344 14.3086 12.625C14.2617 12.5 14.1914 12.4141 14.0977 12.3672C14.0664 12.3516 13.9883 12.3438 13.8633 12.3438C13.7539 12.3438 13.6836 12.3438 13.6523 12.3438C13.293 12.3438 12.9492 12.4219 12.6211 12.5781C12.3086 12.7188 11.9961 12.8828 11.6836 13.0703C11.3867 13.2422 11.0742 13.4062 10.7461 13.5625C10.4336 13.7031 10.0898 13.7734 9.71484 13.7734C9.46484 13.7734 9.26953 13.6953 9.12891 13.5391C8.98828 13.3672 8.91797 13.1641 8.91797 12.9297C8.91797 12.6797 9.06641 12.3438 9.36328 11.9219C9.66016 11.5 9.99609 11.0547 10.3711 10.5859C10.7461 10.1172 11.1133 9.65625 11.4727 9.20312C11.832 8.73438 12.082 8.33594 12.2227 8.00781H12.0352C11.6758 8.00781 11.3477 8.08594 11.0508 8.24219C10.7539 8.38281 10.4727 8.53906 10.207 8.71094C9.94141 8.88281 9.67578 9.04688 9.41016 9.20312C9.16016 9.34375 8.89453 9.41406 8.61328 9.41406C8.41016 9.41406 8.19922 9.36719 7.98047 9.27344C7.76172 9.16406 7.65234 8.97656 7.65234 8.71094C7.65234 8.49219 7.76953 8.27344 8.00391 8.05469C8.23828 7.82031 8.54297 7.60938 8.91797 7.42188C9.29297 7.21875 9.70703 7.03125 10.1602 6.85938C10.6289 6.6875 11.082 6.53906 11.5195 6.41406C11.9727 6.28906 12.3867 6.19531 12.7617 6.13281C13.1367 6.05469 13.4258 6.01562 13.6289 6.01562C14.207 6.01562 14.4961 6.32031 14.4961 6.92969V7.23438C14.2305 7.9375 13.9102 8.57031 13.5352 9.13281C13.1602 9.67969 12.7852 10.2656 12.4102 10.8906H12.6445C12.8633 10.8906 13.0586 10.875 13.2305 10.8438C13.418 10.8125 13.6211 10.7969 13.8398 10.7969C14.4648 10.7969 14.957 11 15.3164 11.4062C15.6758 11.7969 15.9336 12.2812 16.0898 12.8594C16.0898 12.9375 16.0898 13.1016 16.0898 13.3516C16.1055 13.5859 16.1133 13.7344 16.1133 13.7969C16.1133 14.8438 15.8945 15.7422 15.457 16.4922C15.0195 17.2266 14.3711 17.8906 13.5117 18.4844C13.0742 18.8281 12.5977 19 12.082 19C11.832 19 11.6055 18.9141 11.4023 18.7422C11.2148 18.5547 11.1211 18.3438 11.1211 18.1094Z" fill="black"/>
</svg>
