<svg width="89" height="216" viewBox="0 0 89 216" fill="none" xmlns="http://www.w3.org/2000/svg">
<path d="M67.4401 119.081C65.8745 116.858 63.8887 114.879 61.4827 113.143C59.0754 111.412 56.5405 109.938 53.8819 108.722C51.2195 107.506 48.9683 106.597 47.1295 105.994L46.5128 104.763L58.9949 66.7464C59.4011 65.5093 60.3919 64.5509 61.9789 63.875C63.1017 63.3936 64.3165 62.9859 65.613 62.6439C65.4644 63.8442 65.2472 65.0435 65.0766 66.2452C65.0232 66.631 64.9943 67.0205 64.9538 67.4062C64.9475 67.4648 64.9424 67.5195 64.9361 67.5782C64.9161 67.8622 64.7759 69.8631 64.2415 71.6479C64.1905 71.9738 64.1434 72.2879 64.0924 72.6008C63.8204 74.2029 64.6283 75.7692 65.894 76.072C67.2517 76.3963 68.6596 75.5185 69.2348 74.029C70.0519 71.9207 70.8535 69.8073 71.7536 67.7349C72.2171 66.6641 72.8803 65.6805 73.454 64.6546L74.4036 63.2707C74.827 62.7288 75.2968 62.1111 75.7899 61.475C76.1693 61.4868 76.5034 61.5054 76.7767 61.5388C78.1028 61.6316 79.3075 61.858 80.3804 62.2103C81.4533 62.5625 82.4521 62.7603 83.3715 62.8063C84.2909 62.8523 85.097 62.6009 85.7832 62.0586C86.4707 61.5124 87.1217 60.3166 87.731 58.461C88.4919 56.1434 88.2964 54.0236 87.1395 52.1042C85.9864 50.186 84.1781 48.8203 81.7251 48.0149C79.1128 47.1572 76.6247 46.8521 74.2481 47.0996C71.8715 47.3471 69.4534 47.0649 67.0004 46.2595C68.7755 40.8531 71.0106 35.5935 73.7083 30.4857C76.4047 25.3818 78.6397 20.1222 80.4161 14.7119L82.2426 9.14893C81.9793 7.35377 81.3861 5.65845 80.4682 4.07336C79.5424 2.48571 78.0805 1.36386 76.0901 0.710356C73.9404 0.00452347 71.8843 0.574132 69.9206 2.41007C67.9557 4.24993 66.4142 6.0987 65.2974 7.95248C64.7357 9.13851 63.7695 11.1762 62.4001 14.0616C61.0255 16.9496 59.5751 20.0687 58.0527 23.4199C56.5265 26.7699 55.0761 29.889 53.7054 32.7783C52.3308 35.6663 51.3646 37.704 50.8081 38.8874L49.8184 41.9018C49.6667 42.3638 49.3476 43.2044 48.865 44.4121C48.3811 45.6236 47.8843 46.8743 47.3798 48.1615C46.8702 49.4514 46.3346 50.6893 45.7781 51.8727C45.2164 53.0587 44.8636 53.884 44.7119 54.346C43.6877 54.8684 42.0329 55.908 39.7358 57.461C37.4374 59.0179 35.0006 60.6161 32.4266 62.2516C29.8474 63.8898 27.373 65.4713 25.0007 67.004C22.6246 68.5353 21.0048 69.5865 20.1399 70.1612C16.3592 72.862 12.5746 76.1124 8.77703 79.9136C4.97822 83.7188 2.31853 87.937 0.796669 92.5721C0.0357389 94.8897 0.560735 97.2912 2.3859 99.7727C2.72235 100.23 3.07821 100.681 3.44181 101.121C3.78523 101.78 6.57904 107.004 11.0662 110.507C13.0503 111.809 12.7119 116.447 12.4644 118.512C12.076 121.754 11.4286 124.972 10.8304 128.185C10.5594 129.627 11.084 130.809 12.3384 131.212C13.6406 131.627 14.7268 131.034 15.3268 129.639C16.0015 128.07 16.6516 126.483 17.4442 124.974C18.6648 122.66 19.9437 120.378 21.3096 118.146C21.7932 117.355 22.5543 116.716 23.2688 116.101C23.5272 115.878 24.1077 116.051 24.3999 115.843C24.5524 115.733 24.6958 115.611 24.8366 115.484C24.7843 117.414 24.4739 119.71 23.9054 122.373C23.273 125.335 22.5007 128.33 21.5887 131.37C20.6729 134.409 19.7217 137.306 18.734 140.065C17.7423 142.823 16.9682 145.049 16.4104 146.748C13.7479 145.531 11.3081 144.817 9.08444 144.599C6.86076 144.38 5.09642 144.573 3.7966 145.174C2.49289 145.774 1.80501 146.702 1.73554 147.963C1.66218 149.222 2.36622 150.698 3.85412 152.384C3.65103 153.002 3.97093 153.575 4.81514 154.113C5.66063 154.646 6.66929 155.194 7.8476 155.75C9.02462 156.31 10.1628 156.857 11.2646 157.384C12.3639 157.918 13.0683 158.488 13.378 159.106C13.225 160.083 12.8968 161.988 12.3935 164.819C11.8863 167.65 11.3717 170.647 10.8446 173.813C10.3136 176.978 9.7977 179.979 9.29566 182.806C8.78845 185.637 8.43846 187.621 8.23531 188.751L7.85484 189.91C7.80336 190.578 7.67668 191.738 7.48125 193.382C7.28064 195.029 7.13208 196.78 7.03295 198.63C6.93254 200.484 6.78526 202.231 6.58466 203.878C6.38405 205.525 6.25736 206.685 6.21105 207.351C6.72869 209.919 7.65116 211.766 8.9849 212.884C10.3135 214.006 11.903 214.87 13.7456 215.475C14.2043 215.626 14.8944 215.597 15.8171 215.383C16.7346 215.173 17.6919 214.841 18.6891 214.401C19.6837 213.955 20.5383 213.425 21.2554 212.802C21.9674 212.181 22.4538 211.487 22.7083 210.711L29.8814 165.557L32.1642 158.604C35.125 157.351 38.4439 155.912 42.1224 154.297C45.797 152.68 49.3454 150.805 52.7663 148.676C56.182 146.549 59.2566 144.176 61.9888 141.56C64.7158 138.947 66.6378 135.939 67.7548 132.537L68.7818 129.409C69.3152 127.784 69.5536 126.796 69.5036 126.437C69.7004 123.765 69.0199 121.312 67.4556 119.086L67.4401 119.081ZM22.9003 88.918C24.2998 87.2394 25.8821 85.6599 27.6421 84.1821C29.402 82.7042 31.0849 81.4613 32.6931 80.4455C34.3001 79.4335 35.5669 79.0775 36.4843 79.3787L30.2426 98.389C29.9881 99.1642 29.4889 99.3862 28.75 99.0526C28.0047 98.7255 27.4824 98.5063 27.1753 98.4054L24.8739 97.6498C23.9526 97.3473 23.1206 97.0351 22.3817 96.7015C21.6364 96.3744 21.0216 95.9123 20.5385 95.3243C20.0503 94.739 19.9591 93.9805 20.2637 93.0527C20.6185 91.9722 21.4943 90.59 22.899 88.9088L22.9003 88.918ZM54.3115 126.84C53.8552 128.229 52.9774 129.355 51.6756 130.211C50.3738 131.067 49.2609 131.86 48.3472 132.584C47.0699 133.365 45.2685 134.314 42.9496 135.434C40.6256 136.558 39.3878 137.088 39.2362 137.038L38.0855 136.661C37.93 136.61 37.939 136.057 38.1216 135.003C38.2952 133.95 38.3813 133.163 38.3866 132.648L41.9637 121.753C42.524 121.083 43.11 120.846 43.7242 121.048L44.4162 121.275C44.6719 121.532 45.2697 121.902 46.2199 122.379C47.1637 122.862 48.2032 123.329 49.3282 123.785C50.4532 124.241 51.5004 124.672 52.4751 125.074C53.4445 125.479 54.1625 125.758 54.6251 125.91L54.3205 126.838L54.3115 126.84Z" fill="black"/>
<path d="M67.4401 119.081C65.8745 116.858 63.8887 114.879 61.4827 113.143C59.0754 111.412 56.5405 109.938 53.8819 108.722C51.2195 107.506 48.9683 106.597 47.1295 105.994L46.5128 104.763L58.9949 66.7464C59.4011 65.5093 60.3919 64.5509 61.9789 63.875C63.1017 63.3936 64.3165 62.9859 65.613 62.6439C65.4644 63.8442 65.2472 65.0435 65.0766 66.2452C65.0232 66.631 64.9943 67.0205 64.9538 67.4062C64.9475 67.4648 64.9424 67.5195 64.9361 67.5782C64.9161 67.8622 64.7759 69.8631 64.2415 71.6479C64.1905 71.9738 64.1434 72.2879 64.0924 72.6008C63.8204 74.2029 64.6283 75.7692 65.894 76.072C67.2517 76.3963 68.6596 75.5185 69.2348 74.029C70.0519 71.9207 70.8535 69.8073 71.7536 67.7349C72.2171 66.6641 72.8803 65.6805 73.454 64.6546L74.4036 63.2707C74.827 62.7288 75.2968 62.1111 75.7899 61.475C76.1693 61.4868 76.5034 61.5054 76.7767 61.5388C78.1028 61.6316 79.3075 61.858 80.3804 62.2103C81.4533 62.5625 82.4521 62.7603 83.3715 62.8063C84.2909 62.8523 85.097 62.6009 85.7832 62.0586C86.4707 61.5124 87.1217 60.3166 87.731 58.461C88.4919 56.1434 88.2964 54.0236 87.1395 52.1042C85.9864 50.186 84.1781 48.8203 81.7251 48.0149C79.1128 47.1572 76.6247 46.8521 74.2481 47.0996C71.8715 47.3471 69.4534 47.0649 67.0004 46.2595C68.7755 40.8531 71.0106 35.5935 73.7083 30.4857C76.4047 25.3818 78.6397 20.1222 80.4161 14.7119L82.2426 9.14893C81.9793 7.35377 81.3861 5.65845 80.4682 4.07336C79.5424 2.48571 78.0805 1.36386 76.0901 0.710356C73.9404 0.00452347 71.8843 0.574132 69.9206 2.41007C67.9557 4.24993 66.4142 6.0987 65.2974 7.95248C64.7357 9.13851 63.7695 11.1762 62.4001 14.0616C61.0255 16.9496 59.5751 20.0687 58.0527 23.4199C56.5265 26.7699 55.0761 29.889 53.7054 32.7783C52.3308 35.6663 51.3646 37.704 50.8081 38.8874L49.8184 41.9018C49.6667 42.3638 49.3476 43.2044 48.865 44.4121C48.3811 45.6236 47.8843 46.8743 47.3798 48.1615C46.8702 49.4514 46.3346 50.6893 45.7781 51.8727C45.2164 53.0587 44.8636 53.884 44.7119 54.346C43.6877 54.8684 42.0329 55.908 39.7358 57.461C37.4374 59.0179 35.0006 60.6161 32.4266 62.2516C29.8474 63.8898 27.373 65.4713 25.0007 67.004C22.6246 68.5353 21.0048 69.5865 20.1399 70.1612C16.3592 72.862 12.5746 76.1124 8.77703 79.9136C4.97822 83.7188 2.31853 87.937 0.796669 92.5721C0.0357389 94.8897 0.560735 97.2912 2.3859 99.7727C2.72235 100.23 3.07821 100.681 3.44181 101.121C3.78523 101.78 6.57904 107.004 11.0662 110.507C13.0503 111.809 12.7119 116.447 12.4644 118.512C12.076 121.754 11.4286 124.972 10.8304 128.185C10.5594 129.627 11.084 130.809 12.3384 131.212C13.6406 131.627 14.7268 131.034 15.3268 129.639C16.0015 128.07 16.6516 126.483 17.4442 124.974C18.6648 122.66 19.9437 120.378 21.3096 118.146C21.7932 117.355 22.5543 116.716 23.2688 116.101C23.5272 115.878 24.1077 116.051 24.3999 115.843C24.5524 115.733 24.6958 115.611 24.8366 115.484C24.7843 117.414 24.4739 119.71 23.9054 122.373C23.273 125.335 22.5007 128.33 21.5887 131.37C20.6729 134.409 19.7217 137.306 18.734 140.065C17.7423 142.823 16.9682 145.049 16.4104 146.748C13.7479 145.531 11.3081 144.817 9.08444 144.599C6.86076 144.38 5.09642 144.573 3.7966 145.174C2.49289 145.774 1.80501 146.702 1.73554 147.963C1.66218 149.222 2.36622 150.698 3.85412 152.384C3.65103 153.002 3.97093 153.575 4.81514 154.113C5.66063 154.646 6.66929 155.194 7.8476 155.75C9.02462 156.31 10.1628 156.857 11.2646 157.384C12.3639 157.918 13.0683 158.488 13.378 159.106C13.225 160.083 12.8968 161.988 12.3935 164.819C11.8863 167.65 11.3717 170.647 10.8446 173.813C10.3136 176.978 9.7977 179.979 9.29566 182.806C8.78845 185.637 8.43846 187.621 8.23531 188.751L7.85484 189.91C7.80336 190.578 7.67668 191.738 7.48125 193.382C7.28064 195.029 7.13208 196.78 7.03295 198.63C6.93254 200.484 6.78526 202.231 6.58466 203.878C6.38405 205.525 6.25736 206.685 6.21105 207.351C6.72869 209.919 7.65116 211.766 8.9849 212.884C10.3135 214.006 11.903 214.87 13.7456 215.475C14.2043 215.626 14.8944 215.597 15.8171 215.383C16.7346 215.173 17.6919 214.841 18.6891 214.401C19.6837 213.955 20.5383 213.425 21.2554 212.802C21.9674 212.181 22.4538 211.487 22.7083 210.711L29.8814 165.557L32.1642 158.604C35.125 157.351 38.4439 155.912 42.1224 154.297C45.797 152.68 49.3454 150.805 52.7663 148.676C56.182 146.549 59.2566 144.176 61.9888 141.56C64.7158 138.947 66.6378 135.939 67.7548 132.537L68.7818 129.409C69.3152 127.784 69.5536 126.796 69.5036 126.437C69.7004 123.765 69.0199 121.312 67.4556 119.086L67.4401 119.081ZM22.9003 88.918C24.2998 87.2394 25.8821 85.6599 27.6421 84.1821C29.402 82.7042 31.0849 81.4613 32.6931 80.4455C34.3001 79.4335 35.5669 79.0775 36.4843 79.3787L30.2426 98.389C29.9881 99.1642 29.4889 99.3862 28.75 99.0526C28.0047 98.7255 27.4824 98.5063 27.1753 98.4054L24.8739 97.6498C23.9526 97.3473 23.1206 97.0351 22.3817 96.7015C21.6364 96.3744 21.0216 95.9123 20.5385 95.3243C20.0503 94.739 19.9591 93.9805 20.2637 93.0527C20.6185 91.9722 21.4943 90.59 22.899 88.9088L22.9003 88.918ZM54.3115 126.84C53.8552 128.229 52.9774 129.355 51.6756 130.211C50.3738 131.067 49.2609 131.86 48.3472 132.584C47.0699 133.365 45.2685 134.314 42.9496 135.434C40.6256 136.558 39.3878 137.088 39.2362 137.038L38.0855 136.661C37.93 136.61 37.939 136.057 38.1216 135.003C38.2952 133.95 38.3813 133.163 38.3866 132.648L41.9637 121.753C42.524 121.083 43.11 120.846 43.7242 121.048L44.4162 121.275C44.6719 121.532 45.2697 121.902 46.2199 122.379C47.1637 122.862 48.2032 123.329 49.3282 123.785C50.4532 124.241 51.5004 124.672 52.4751 125.074C53.4445 125.479 54.1625 125.758 54.6251 125.91L54.3205 126.838L54.3115 126.84Z" fill="url(#paint0_linear_492_12797)"/>
<defs>
<linearGradient id="paint0_linear_492_12797" x1="-11.819" y1="186.027" x2="39.5352" y2="-32.5456" gradientUnits="userSpaceOnUse">
<stop stop-color="#4BEBE2"/>
<stop offset="1" stop-color="#DD46FF"/>
</linearGradient>
</defs>
</svg>
