<svg width="834" height="593" viewBox="0 0 834 593" fill="none" xmlns="http://www.w3.org/2000/svg">
<path d="M148.888 672.062C158.054 659.458 168.08 650.005 178.966 643.703C190.424 637.401 201.882 632.245 213.341 628.234C225.372 624.224 237.117 620.5 248.575 617.062C260.606 613.052 272.351 606.75 283.809 598.156C290.111 594.719 298.992 589.562 310.45 582.688C321.908 575.812 333.08 568.365 343.966 560.344C355.424 551.75 365.164 543.443 373.184 535.422C381.778 527.401 386.075 520.526 386.075 514.797C386.075 514.224 385.789 513.938 385.216 513.938C384.07 513.938 383.497 513.651 383.497 513.078L381.778 511.359C378.914 510.214 374.33 508.781 368.028 507.062C361.726 505.344 358.002 504.198 356.856 503.625C282.95 495.031 223.367 487.583 178.106 481.281C133.419 474.406 98.7573 467.245 74.1219 459.797C50.0594 452.349 34.0177 443.755 25.9969 434.016C17.9761 424.276 13.9656 411.958 13.9656 397.062C13.9656 391.333 15.1115 385.031 17.4031 378.156C19.6948 371.281 22.2729 364.406 25.1375 357.531C28.575 350.656 32.0125 344.354 35.45 338.625C38.8875 332.896 42.0386 328.312 44.9031 324.875C54.0698 313.417 66.1011 303.104 80.9969 293.938C95.8927 284.771 111.934 276.75 129.122 269.875C146.309 263 163.497 256.984 180.684 251.828C198.445 246.672 214.486 242.089 228.809 238.078C244.851 236.932 260.893 233.208 276.934 226.906C293.549 220.031 309.877 215.448 325.919 213.156C333.94 213.156 340.528 216.307 345.684 222.609C350.841 228.911 353.419 235.5 353.419 242.375C353.419 252.115 351.414 259.562 347.403 264.719C343.966 269.302 339.096 273.026 332.794 275.891C327.065 278.182 320.476 280.188 313.028 281.906C305.58 283.052 298.132 284.484 290.684 286.203C286.101 287.349 279.799 289.068 271.778 291.359C263.757 293.078 255.736 295.083 247.716 297.375C239.695 299.667 232.533 301.672 226.231 303.391C219.929 305.109 216.205 306.255 215.059 306.828C197.299 314.276 180.398 321.438 164.356 328.312C148.888 334.615 135.138 341.203 123.106 348.078C111.648 354.953 102.481 362.401 95.6063 370.422C89.3042 377.87 86.4396 386.177 87.0125 395.344V396.203C92.7417 404.224 105.632 410.24 125.684 414.25C145.736 418.26 169.226 421.698 196.153 424.562C223.653 427.427 252.299 430.292 282.091 433.156C312.455 436.021 340.242 440.318 365.45 446.047C390.658 451.776 411.57 459.51 428.184 469.25C444.799 478.99 453.393 492.167 453.966 508.781C453.966 515.083 452.533 522.531 449.669 531.125C447.377 539.719 443.94 546.307 439.356 550.891C425.033 566.932 407.846 583.547 387.794 600.734C368.315 617.922 347.117 633.964 324.2 648.859C301.283 663.182 277.507 675.5 252.872 685.812C228.809 695.552 205.033 701.281 181.544 703C173.523 703 166.075 700.135 159.2 694.406C152.325 688.104 148.888 680.656 148.888 672.062ZM557.984 531.984C558.557 520.526 558.271 509.068 557.125 497.609C556.552 486.151 555.693 474.693 554.547 463.234C553.974 460.37 553.115 455.786 551.969 449.484C551.396 443.182 551.109 439.458 551.109 438.312C551.109 437.74 550.536 436.594 549.391 434.875C548.245 432.583 547.672 431.151 547.672 430.578L549.391 428.859C551.109 427.141 551.682 426.281 551.109 426.281V260.422H547.672C540.797 268.443 532.776 277.036 523.609 286.203C514.443 295.37 503.557 299.953 490.953 299.953C481.786 299.953 472.906 296.802 464.312 290.5C456.292 284.198 452.281 275.891 452.281 265.578V263.859C452.281 263.286 452.568 262.427 453.141 261.281C453.714 260.135 454.286 258.99 454.859 257.844C455.432 256.125 456.005 254.693 456.578 253.547L552.828 169.328V122.062C552.828 116.333 556.266 112.036 563.141 109.172C570.016 105.734 575.745 104.016 580.328 104.016C587.776 104.016 594.651 106.021 600.953 110.031C607.255 113.469 613.557 115.188 619.859 115.188C625.589 115.188 630.745 113.469 635.328 110.031C639.911 106.594 644.495 103.443 649.078 100.578C670.849 87.401 691.76 77.375 711.812 70.5C732.438 63.625 755.354 60.1875 780.562 60.1875C791.448 60.1875 804.339 61.3333 819.234 63.625C834.703 65.3438 849.312 68.7812 863.062 73.9375C877.385 79.0938 889.417 86.2552 899.156 95.4219C908.896 104.589 913.766 116.333 913.766 130.656C913.766 156.438 908.609 181.073 898.297 204.562C887.984 228.052 873.661 248.964 855.328 267.297C831.266 290.214 808.635 310.839 787.438 329.172C766.812 346.932 743.609 364.979 717.828 383.312C717.255 383.885 716.682 384.745 716.109 385.891C715.536 386.464 714.964 387.036 714.391 387.609L631.031 445.188C628.167 447.479 626.734 451.776 626.734 458.078C626.734 463.807 626.734 467.531 626.734 469.25C626.734 485.865 627.594 502.479 629.312 519.094C631.604 535.135 633.896 551.464 636.188 568.078C638.479 584.693 640.484 601.307 642.203 617.922C644.495 634.536 645.641 651.151 645.641 667.766C645.641 676.932 643.349 685.24 638.766 692.688C634.755 699.562 627.307 703 616.422 703C608.401 703 599.807 699.849 590.641 693.547C582.047 686.672 577.177 678.938 576.031 670.344L557.984 531.984ZM626.734 366.125L783.141 246.672C790.016 241.516 796.891 234.927 803.766 226.906C811.214 218.312 817.802 209.432 823.531 200.266C829.833 190.526 834.99 180.5 839 170.188C843.01 159.875 845.016 150.135 845.016 140.969C845.016 135.24 842.438 130.943 837.281 128.078C832.698 124.641 827.255 122.349 820.953 121.203C814.651 119.484 808.062 118.625 801.188 118.625C794.885 118.625 789.729 118.625 785.719 118.625C759.938 118.625 736.161 124.641 714.391 136.672C693.193 148.13 672.854 160.448 653.375 173.625C652.229 174.771 649.938 176.49 646.5 178.781C643.062 180.5 639.625 182.792 636.188 185.656C632.75 187.948 629.599 190.24 626.734 192.531C624.443 194.823 623.297 196.828 623.297 198.547V361.828L626.734 366.125ZM881.144 569.797C881.144 525.682 881.717 481.854 882.862 438.312C884.581 394.771 885.441 350.656 885.441 305.969C885.441 280.188 884.008 254.406 881.144 228.625C878.852 202.844 877.706 177.062 877.706 151.281C877.706 143.26 879.998 136.385 884.581 130.656C889.737 124.927 896.326 122.062 904.347 122.062C918.097 122.062 928.409 124.927 935.284 130.656C942.159 136.385 947.029 143.547 949.894 152.141C952.758 160.734 954.191 170.474 954.191 181.359C954.191 192.245 954.191 202.844 954.191 213.156C954.191 215.448 954.191 221.177 954.191 230.344C954.764 239.51 955.336 249.536 955.909 260.422C956.482 270.734 956.769 280.474 956.769 289.641C957.342 298.807 957.628 304.536 957.628 306.828V335.188C957.628 372.427 957.055 409.38 955.909 446.047C954.764 482.714 954.191 519.953 954.191 557.766V593.859C954.191 596.724 954.477 600.734 955.05 605.891C956.196 610.474 957.055 612.766 957.628 612.766H964.503L1168.17 531.984C1172.76 527.974 1176.77 525.969 1180.21 525.969C1183.64 525.396 1187.65 525.109 1192.24 525.109C1195.1 525.109 1198.83 525.396 1203.41 525.969C1207.99 525.969 1212.29 526.828 1216.3 528.547C1220.88 529.693 1224.61 531.698 1227.47 534.562C1230.91 536.854 1232.63 540.578 1232.63 545.734C1232.63 558.911 1225.47 570.37 1211.14 580.109C1192.81 589.849 1173.9 599.016 1154.42 607.609C1134.95 615.63 1115.18 622.219 1095.13 627.375L1090.83 630.812C1063.33 638.26 1037.55 649.146 1013.49 663.469C989.998 677.792 965.362 690.969 939.581 703H931.847C916.378 703 904.92 697.844 897.472 687.531C890.024 677.219 885.154 665.188 882.862 651.438C880.571 637.115 879.711 622.505 880.284 607.609C880.857 592.141 881.144 579.536 881.144 569.797Z" fill="url(#paint0_linear_1177_10195)"/>
<defs>
<linearGradient id="paint0_linear_1177_10195" x1="71.8839" y1="270.519" x2="963.852" y2="1017.42" gradientUnits="userSpaceOnUse">
<stop stop-color="#4BEBE2"/>
<stop offset="1" stop-color="#DD46FF"/>
</linearGradient>
</defs>
</svg>
