<svg width="486" height="540" viewBox="0 0 486 540" fill="none" xmlns="http://www.w3.org/2000/svg">
<g clip-path="url(#clip0_1273_10010)">
<g opacity="0.3">
<path d="M-294.588 581.396C-294.588 581.396 -292.662 589.059 -292.624 589.062C-292.482 589.026 -289.985 558.347 -289.828 558.32C-289.64 558.272 -279.874 598.013 -279.676 597.949C-279.417 597.883 -283.047 544.266 -282.788 544.199C-282.504 544.127 -268.819 599.856 -268.551 599.775C-268.221 599.69 -275.926 530.753 -275.596 530.668C-275.265 530.584 -258.03 600.662 -257.691 600.562C-257.29 600.46 -268.726 517.546 -268.31 517.453C-267.895 517.359 -247.096 602.033 -246.671 601.925C-246.199 601.804 -261.367 504.915 -260.895 504.794C-260.423 504.673 -235.92 604.349 -235.425 604.222C-234.882 604.083 -253.905 492.685 -253.362 492.546C-252.796 492.401 -224.464 607.711 -223.897 607.566C-223.284 607.409 -246.415 480.611 -245.802 480.454C-245.141 480.285 -212.737 612.273 -212.077 612.104C-211.369 611.923 -238.898 468.693 -238.19 468.512C-237.435 468.319 -200.652 618.189 -199.897 617.995C-199.095 617.79 -231.308 457.059 -230.506 456.853C-229.657 456.636 -188.18 625.614 -187.33 625.397C-186.434 625.167 -223.718 445.424 -222.822 445.195C-221.878 444.953 -175.266 634.762 -174.323 634.52C-173.379 634.278 -216.032 434.167 -215.041 433.913C-213.98 433.641 -162.114 644.891 -161.061 644.634C-160.008 644.377 -208.357 422.963 -207.263 422.67C-206.107 422.374 -149.1 654.578 -147.935 654.267C-146.771 653.956 -200.619 411.957 -199.431 411.64C-198.243 411.323 -136.301 663.277 -135.051 662.957C-133.754 662.625 -192.823 401.225 -191.526 400.892C-190.229 400.56 -124.095 669.665 -122.765 669.311C-121.436 668.958 -184.907 390.864 -183.516 390.507C-182.124 390.151 -112.49 673.655 -111.075 673.292C-109.66 672.93 -176.913 380.71 -175.46 380.35C-174.006 379.99 -101.384 675.649 -99.913 675.259C-98.4417 674.87 -168.793 371.05 -167.283 370.664C-165.773 370.277 -90.6926 675.976 -89.1681 675.598C-87.6435 675.221 -160.618 361.503 -159.061 361.104C-157.504 360.706 -80.2941 675.11 -78.7224 674.72C-77.1507 674.33 -152.304 352.499 -150.715 352.079C-149.126 351.659 -70.083 673.512 -68.479 673.101C-66.8749 672.691 -143.987 343.556 -142.336 343.133C-140.685 342.71 -59.978 671.452 -58.3356 671.043C-56.6931 670.635 -135.481 335.206 -133.806 334.777C-132.131 334.348 -49.9549 669.022 -48.2888 668.608C-46.6228 668.194 -126.914 327.091 -125.216 326.656C-123.517 326.221 -40.0613 666.136 -38.3629 665.701C-36.6645 665.266 -118.244 319.378 -116.522 318.937C-114.8 318.496 -30.3221 662.598 -28.6001 662.157C-26.8781 661.716 -109.496 311.971 -107.76 311.539C-106.023 311.107 -20.6979 658.612 -18.9671 658.156C-17.2363 657.7 -100.706 304.73 -98.9603 304.283C-97.2147 303.836 -11.2064 654.106 -9.46081 653.659C-7.69164 653.206 -91.8308 297.819 -90.0616 297.365C-88.2925 296.912 -1.85732 648.997 -0.102963 648.535C1.6514 648.073 -82.9228 290.987 -81.1537 290.534C-79.3845 290.081 7.30445 643.156 9.06485 642.717C10.8253 642.279 -73.9725 284.32 -72.2033 283.867C-70.4342 283.414 16.3065 636.74 18.0756 636.287C19.8448 635.833 -65.004 277.724 -63.2348 277.271C-61.4657 276.818 25.1628 629.657 26.9232 629.219C28.6836 628.78 -56.0323 271.191 -54.2396 270.731C-52.494 270.284 33.8587 621.899 35.6043 621.452C37.3499 621.005 -46.992 264.777 -45.208 264.333C-43.424 263.889 42.2921 613.166 44.0376 612.719C45.8068 612.265 -37.9396 258.411 -36.1852 257.949C-34.4309 257.487 50.5287 603.615 52.2507 603.174C53.9962 602.727 -28.8932 252.022 -27.1476 251.575C-25.402 251.128 58.4297 592.705 60.1281 592.27C61.8501 591.829 -19.8078 245.735 -18.0858 245.294C-16.411 244.865 65.7929 579.696 67.4677 579.267C69.1425 578.838 -10.6714 239.599 -8.99657 239.17C-7.32176 238.741 72.4759 563.983 74.1036 563.566C75.7312 563.149 -1.53488 233.463 0.0927576 233.046C1.64963 232.647 77.7713 542.705 79.3194 542.321C80.8675 541.937 7.61637 227.336 9.19684 226.931C10.6594 226.556 82.0812 517.482 83.535 517.123C84.9887 516.763 16.8719 221.37 18.3344 220.995C19.7026 220.645 86.5999 493.123 87.9532 492.764C89.3065 492.405 26.1012 215.449 27.4929 215.092C28.7668 214.766 91.33 469.59 92.6038 469.264C93.9012 468.931 35.3687 209.531 36.6425 209.204C37.822 208.902 96.3111 447.086 97.5054 446.793C98.6996 446.499 44.6014 203.671 45.8044 203.363C46.9131 203.079 101.486 425.337 102.594 425.053C103.703 424.768 53.8849 197.963 55.0172 197.673C56.0551 197.407 106.817 404.201 107.855 403.935C108.893 403.669 63.1774 192.239 64.2153 191.973C65.1825 191.725 113.098 386.868 114.074 386.606C115.05 386.343 72.4226 186.527 73.4133 186.274C74.3569 186.032 120.461 373.859 121.405 373.617C122.349 373.376 81.6833 180.925 82.6504 180.677C83.6176 180.429 128.577 363.736 129.482 363.492C130.387 363.247 90.9708 175.379 91.9056 175.152C92.8403 174.925 137.206 355.719 138.103 355.489C138.999 355.26 100.241 169.862 101.161 169.626C102.081 169.39 146.262 349.415 147.158 349.186C148.055 348.956 109.496 164.336 110.416 164.101C111.336 163.865 155.671 344.541 156.577 344.297C157.482 344.052 118.787 158.952 119.707 158.716C120.627 158.481 165.392 340.832 166.297 340.588C167.202 340.343 128.07 153.583 128.999 153.332C129.927 153.082 175.351 338.105 176.271 337.869C177.191 337.633 137.338 148.205 138.281 147.963C139.225 147.722 185.42 335.903 186.364 335.661C187.307 335.419 146.624 142.898 147.591 142.65C148.558 142.402 195.549 333.836 196.501 333.579C197.453 333.323 155.955 137.717 156.922 137.469C157.889 137.222 205.662 331.76 206.63 331.512C207.597 331.265 165.277 132.552 166.253 132.289C167.229 132.026 215.768 329.7 216.758 329.446C217.749 329.192 174.584 127.377 175.599 127.117C176.613 126.857 225.896 327.633 226.902 327.388C227.907 327.143 183.972 122.371 184.987 122.111C186.001 121.851 236.031 325.59 237.045 325.33C238.059 325.07 193.376 117.473 194.39 117.213C195.405 116.953 246.106 323.411 247.144 323.145C248.182 322.879 202.756 112.582 203.802 112.301C204.849 112.02 256.207 321.188 257.245 320.922C258.283 320.656 212.153 107.661 213.215 107.389C214.276 107.117 266.284 318.971 267.346 318.699C268.407 318.427 221.617 102.999 222.687 102.712C223.758 102.426 276.385 316.748 277.447 316.476C278.508 316.204 231.087 98.3611 232.172 98.0831C233.257 97.8052 286.463 314.531 287.548 314.253C288.633 313.975 240.557 93.7231 241.642 93.4451C242.727 93.1671 296.541 312.313 297.641 312.044C298.74 311.775 250.016 89.1384 251.124 88.8544C252.233 88.5704 306.609 310.011 307.709 309.742C308.809 309.472 259.558 84.7835 260.681 84.5082C261.805 84.233 316.677 307.708 317.786 307.424C318.894 307.14 269.107 80.4522 270.224 80.1534C271.341 79.8545 326.73 305.397 327.848 305.098C328.965 304.799 278.634 76.0885 279.766 75.7985C280.899 75.5084 336.784 303.085 337.916 302.795C339.048 302.505 288.207 71.8516 289.339 71.5615C290.471 71.2715 346.837 300.774 347.984 300.493C349.131 300.211 297.813 67.7945 298.969 67.4984C300.125 67.2023 356.914 298.456 358.061 298.175C359.208 297.894 307.434 63.7463 308.599 63.4354C309.763 63.1245 366.97 296.107 368.126 295.81C369.282 295.514 317.049 59.6745 318.229 59.3723C318.724 59.2454 343.065 158.384 343.56 158.257C344.055 158.13 327.397 55.6161 327.892 55.4892C328.34 55.3744 350.941 147.38 351.398 147.25C351.855 147.121 337.123 51.8301 337.594 51.7092C338.019 51.6005 359.489 138.994 359.928 138.894C360.368 138.794 346.854 48.0676 347.288 47.944C347.712 47.8353 368.354 131.897 368.77 131.803C369.186 131.709 356.557 44.2876 356.981 44.1788C357.406 44.0701 377.44 125.711 377.841 125.608C378.242 125.505 366.326 40.7671 366.75 40.6584C367.175 40.5496 386.689 120.162 387.09 120.059C387.491 119.956 376.121 37.3026 376.531 37.185C376.941 37.0675 396.062 115.046 396.448 114.934C396.834 114.823 385.911 33.8145 386.297 33.703C386.683 33.5915 405.42 109.921 405.797 109.825C406.174 109.728 395.692 30.3411 396.069 30.2444C396.447 30.1477 414.871 105.213 415.249 105.116C415.626 105.019 405.551 27.1744 405.929 27.0778C406.306 26.9811 424.356 100.583 424.734 100.487C425.111 100.39 415.411 24.0078 415.788 23.9111C416.165 23.8144 433.928 96.246 434.291 96.1406C434.654 96.0351 425.279 20.8262 425.633 20.7356C425.986 20.645 443.534 92.0886 443.888 91.998C444.242 91.9073 435.148 17.7452 435.516 17.6633C435.885 17.5815 453.188 88.12 453.542 88.0293C453.896 87.9387 445.1 14.894 445.454 14.8033C445.808 14.7127 462.929 84.443 463.268 84.3436C463.607 84.2442 455.038 12.0339 455.392 11.9433C455.746 11.8527 472.674 80.8282 473.019 80.7523C473.364 80.6765 464.982 9.19749 465.336 9.10685C465.69 9.01621 482.527 77.638 482.872 77.5621C483.217 77.4863 474.972 6.4878 475.302 6.4032C475.632 6.3186 492.372 74.4625 492.711 74.363C493.05 74.2636 484.971 3.96407 485.324 3.87342C485.678 3.78278 502.328 71.6733 502.673 71.5974C503.018 71.5216 494.993 1.43434 495.347 1.3437C495.701 1.25306 512.302 68.9548 512.641 68.8554C512.98 68.7559 505.024 -1.11028 505.355 -1.19488C505.685 -1.27947 522.334 66.5106 522.679 66.4348C523.024 66.3589 515.087 -3.43656 515.432 -3.51238C515.777 -3.58821 532.444 64.2726 532.774 64.188C533.105 64.1034 525.194 -5.63605 525.539 -5.71188C525.884 -5.7877 542.576 62.1675 542.906 62.0829C543.236 61.9983 535.301 -7.83556 535.631 -7.92015C535.962 -8.00475 552.75 60.3278 553.095 60.252C553.44 60.1761 545.385 -10.0291 545.738 -10.1197C546.092 -10.2103 562.954 58.5057 563.293 58.4063C563.632 58.3069 555.567 -11.9839 555.897 -12.0685C556.228 -12.1531 573.197 56.8871 573.542 56.8113C573.887 56.7355 565.735 -13.8471 566.089 -13.9378C566.443 -14.0284 583.498 55.4425 583.837 55.3431C584.176 55.2437 575.936 -15.7313 576.266 -15.8159C576.596 -15.9005 593.777 53.9654 594.122 53.8896C594.467 53.8138 586.104 -17.5945 586.458 -17.6851C586.812 -17.7758 604.154 52.8658 604.508 52.7752C604.861 52.6846 596.293 -19.4254 596.647 -19.516C597.001 -19.6066 614.536 51.7898 614.89 51.6991C615.244 51.6085 606.479 -21.3182 606.833 -21.4089C607.186 -21.4995 624.943 50.8082 625.311 50.7263C625.68 50.6444 616.583 -23.4793 616.946 -23.5848C617.308 -23.6902 635.437 50.1182 635.799 50.0128C636.162 49.9073 626.627 -25.8763 626.99 -25.9818C627.352 -26.0873 645.901 49.4109 646.278 49.3143C646.656 49.2176 636.584 -28.5652 636.961 -28.6619C637.339 -28.7586 656.447 48.9718 656.824 48.8751C657.201 48.7785 646.438 -31.6551 646.839 -31.7578C647.24 -31.8605 667.014 48.6655 667.415 48.5627" stroke="url(#paint0_linear_1273_10010)" stroke-width="1.89404" stroke-linecap="round" stroke-linejoin="round"/>
<path d="M-572.675 -244.069C-571.991 -244.244 -538.426 -107.525 -537.742 -107.701C-537.199 -107.84 -556.116 -218.775 -555.573 -218.914C-555.03 -219.053 -528.54 -111.176 -528.006 -111.301C-527.511 -111.428 -543.478 -211.291 -542.991 -211.403C-542.504 -211.515 -518.769 -114.836 -518.282 -114.948C-517.834 -115.063 -531.764 -207.316 -531.315 -207.431C-530.867 -207.546 -509.01 -118.542 -508.57 -118.642C-508.131 -118.742 -520.506 -205.072 -520.081 -205.181C-519.656 -205.29 -499.275 -122.243 -498.859 -122.337C-498.443 -122.431 -509.462 -203.716 -509.061 -203.819C-508.66 -203.922 -489.518 -125.911 -489.132 -126.022C-488.746 -126.134 -498.645 -203.194 -498.268 -203.291C-497.891 -203.387 -479.783 -129.611 -479.421 -129.717C-479.058 -129.822 -488.016 -203.403 -487.653 -203.509C-487.291 -203.614 -470.006 -133.147 -469.652 -133.237C-469.298 -133.328 -477.537 -204.202 -477.192 -204.278C-476.847 -204.354 -460.216 -136.635 -459.886 -136.719C-459.556 -136.804 -467.062 -204.963 -466.722 -205.062C-466.383 -205.162 -450.441 -140.132 -450.111 -140.216C-449.781 -140.301 -456.617 -205.942 -456.31 -206.02C-456.003 -206.099 -440.63 -143.487 -440.315 -143.58C-439.999 -143.674 -446.258 -207.112 -445.952 -207.191C-445.645 -207.269 -430.774 -146.716 -430.482 -146.803C-430.19 -146.89 -435.876 -208.289 -435.593 -208.361C-435.31 -208.434 -420.941 -149.938 -420.644 -150.002C-420.346 -150.066 -425.585 -209.719 -425.302 -209.791C-425.018 -209.864 -411.082 -153.105 -410.799 -153.177C-410.516 -153.25 -415.29 -211.187 -415.007 -211.259C-414.724 -211.332 -401.147 -156.027 -400.873 -156.085C-400.599 -156.142 -405.002 -212.679 -404.733 -212.76C-404.465 -212.841 -391.221 -158.934 -390.962 -159.001C-390.702 -159.067 -394.737 -214.265 -394.478 -214.331C-394.218 -214.398 -381.31 -161.85 -381.051 -161.917C-380.791 -161.983 -384.473 -215.851 -384.214 -215.918C-383.954 -215.984 -371.33 -164.545 -371.071 -164.612C-370.811 -164.678 -374.209 -217.437 -373.949 -217.504C-373.69 -217.57 -361.317 -167.16 -361.072 -167.236C-360.827 -167.311 -363.924 -218.991 -363.688 -219.052C-363.452 -219.112 -351.318 -169.785 -351.083 -169.845C-350.847 -169.905 -353.665 -220.501 -353.405 -220.567C-353.146 -220.633 -341.299 -172.276 -341.048 -172.328C-340.797 -172.379 -343.367 -222.007 -343.132 -222.068C-342.896 -222.128 -331.216 -174.57 -330.98 -174.63C-330.744 -174.691 -333.085 -223.523 -332.849 -223.583C-332.613 -223.643 -321.132 -176.864 -320.897 -176.924C-320.661 -176.984 -322.793 -224.953 -322.557 -225.013C-322.322 -225.073 -311.049 -179.158 -310.822 -179.203C-310.595 -179.249 -312.481 -226.35 -312.254 -226.396C-312.026 -226.441 -300.891 -181.106 -300.67 -181.176C-300.448 -181.245 -302.177 -227.733 -301.956 -227.802C-301.735 -227.871 -290.744 -183.102 -290.517 -183.148C-290.29 -183.194 -291.879 -229.139 -291.643 -229.199C-291.407 -229.26 -280.576 -185.066 -280.355 -185.135C-280.134 -185.204 -281.521 -230.41 -281.309 -230.464C-281.097 -230.519 -270.354 -186.817 -270.142 -186.872C-269.93 -186.926 -271.166 -231.642 -270.954 -231.696C-270.742 -231.751 -260.102 -188.451 -259.89 -188.505C-259.677 -188.559 -260.82 -232.86 -260.599 -232.929C-260.378 -232.998 -249.85 -190.084 -249.638 -190.138C-249.425 -190.193 -250.465 -234.092 -250.253 -234.146C-250.041 -234.201 -239.576 -191.585 -239.364 -191.639C-239.152 -191.693 -240.065 -235.097 -239.852 -235.152C-239.64 -235.206 -229.248 -192.873 -229.036 -192.927C-228.824 -192.982 -229.655 -236.117 -229.443 -236.172C-229.231 -236.226 -218.905 -194.153 -218.693 -194.207C-218.481 -194.261 -219.24 -237.114 -219.043 -237.177C-218.845 -237.24 -208.577 -195.441 -208.365 -195.495C-208.153 -195.55 -208.833 -238.096 -208.621 -238.15C-208.409 -238.204 -198.144 -196.367 -197.931 -196.421C-197.719 -196.475 -198.358 -238.856 -198.145 -238.911C-197.933 -238.965 -187.71 -197.292 -187.498 -197.347C-187.286 -197.401 -187.882 -239.617 -187.67 -239.671C-187.457 -239.726 -177.277 -198.218 -177.064 -198.272C-176.852 -198.327 -177.406 -240.377 -177.194 -240.432C-176.981 -240.486 -166.789 -198.932 -166.577 -198.986C-166.364 -199.04 -166.855 -240.893 -166.666 -240.942C-166.478 -240.99 -156.286 -199.536 -156.073 -199.59C-155.861 -199.645 -156.321 -241.38 -156.133 -241.428C-155.944 -241.476 -145.782 -200.14 -145.57 -200.194C-145.358 -200.249 -145.797 -241.851 -145.599 -241.914C-145.402 -241.977 -135.219 -200.508 -135.006 -200.563C-134.794 -200.617 -135.215 -242.149 -135.003 -242.203C-134.79 -242.257 -124.613 -200.812 -124.416 -200.875C-124.218 -200.938 -124.579 -242.334 -124.391 -242.383C-124.202 -242.431 -114.046 -201.118 -113.834 -201.173C-113.622 -201.227 -113.967 -242.514 -113.764 -242.554C-113.56 -242.593 -103.377 -201.124 -103.165 -201.179C-102.952 -201.233 -103.304 -242.543 -103.107 -242.607C-102.909 -242.67 -92.7017 -201.106 -92.4894 -201.161C-92.2771 -201.215 -92.6074 -242.393 -92.3951 -242.447C-92.1828 -242.502 -82.0205 -201.065 -81.8082 -201.119C-81.5959 -201.174 -81.8872 -242.248 -81.6837 -242.288C-81.4802 -242.327 -71.2547 -200.693 -71.0424 -200.748C-70.8301 -200.802 -71.1576 -242.018 -70.9689 -242.066C-70.7802 -242.115 -60.5037 -200.33 -60.2914 -200.385C-60.0791 -200.439 -60.3791 -241.499 -60.1668 -241.553C-59.9545 -241.608 -49.7136 -199.864 -49.5013 -199.919C-49.289 -199.973 -49.5621 -240.977 -49.3734 -241.025C-49.1611 -241.08 -38.8659 -199.124 -38.6536 -199.178C-38.4413 -199.233 -38.7836 -240.458 -38.5713 -240.512C-38.359 -240.566 -28.0034 -198.375 -27.7911 -198.429C-27.6024 -198.478 -27.8789 -239.543 -27.6666 -239.598C-27.4543 -239.652 -17.0837 -197.452 -16.8862 -197.515C-16.6975 -197.563 -16.9652 -238.644 -16.7677 -238.707C-16.5554 -238.761 -6.13931 -196.334 -5.92701 -196.388C-5.71471 -196.443 -6.06647 -237.753 -5.87776 -237.802C-5.66546 -237.856 4.81114 -195.193 5.02345 -195.247C5.21216 -195.295 4.90549 -236.479 5.11779 -236.534C5.3301 -236.588 15.855 -193.736 16.0673 -193.79C16.2796 -193.845 15.919 -235.14 16.1313 -235.195C16.3436 -235.249 26.929 -192.161 27.1413 -192.216C27.3536 -192.27 26.9327 -233.802 27.145 -233.856C27.3573 -233.91 38.003 -190.586 38.2153 -190.641C38.4276 -190.695 38.0335 -232.171 38.2222 -232.219C38.4345 -232.274 49.1683 -188.558 49.3954 -188.603C49.6077 -188.658 49.1323 -230.401 49.3446 -230.456C49.557 -230.51 60.3631 -186.511 60.5902 -186.557C60.8025 -186.611 60.2789 -228.544 60.4912 -228.598C60.7035 -228.652 71.5943 -184.323 71.8214 -184.369C72.0337 -184.423 71.504 -226.379 71.7075 -226.419C71.9198 -226.473 82.9013 -181.79 83.1284 -181.836C83.3407 -181.89 82.7264 -224.176 82.9239 -224.24C83.1597 -224.3 94.2203 -179.21 94.4414 -179.279C94.6537 -179.333 94.0273 -221.667 94.2396 -221.721C94.4755 -221.782 105.648 -176.205 105.884 -176.265C106.096 -176.32 105.367 -219.054 105.571 -219.094C105.807 -219.154 117.082 -173.176 117.318 -173.237C117.53 -173.291 116.753 -216.215 116.965 -216.269C117.201 -216.329 128.658 -169.644 128.893 -169.704C129.106 -169.759 128.211 -213.092 128.423 -213.146C128.659 -213.206 140.23 -166.073 140.466 -166.133C140.679 -166.188 139.675 -209.945 139.887 -210C140.123 -210.06 151.93 -162.006 152.166 -162.067C152.378 -162.121 151.272 -206.28 151.484 -206.334C151.72 -206.395 163.66 -157.822 163.896 -157.882C164.108 -157.937 162.869 -202.615 163.081 -202.669C163.317 -202.729 175.508 -153.128 175.753 -153.203C175.965 -153.257 174.581 -198.501 174.808 -198.547C175.067 -198.613 187.416 -148.298 187.667 -148.349C187.879 -148.404 186.344 -194.237 186.571 -194.283C186.83 -194.349 199.46 -142.887 199.72 -142.953C199.956 -143.014 198.188 -189.605 198.424 -189.665C198.684 -189.732 211.562 -137.302 211.821 -137.368C212.057 -137.429 210.115 -184.704 210.35 -184.764C210.61 -184.831 223.817 -131.065 224.092 -131.123C224.328 -131.183 222.104 -179.505 222.34 -179.566C222.623 -179.638 236.115 -124.664 236.39 -124.721C236.625 -124.782 234.203 -173.882 234.439 -173.942C234.722 -174.015 248.368 -118.389 248.651 -118.461C248.887 -118.522 246.362 -168.023 246.598 -168.083C246.881 -168.156 260.461 -112.789 260.744 -112.861C260.98 -112.922 258.66 -161.621 258.896 -161.682C259.155 -161.748 272.405 -107.817 272.679 -107.875C272.915 -107.936 270.961 -155.258 271.182 -155.327C271.441 -155.394 284.192 -103.459 284.452 -103.526C284.664 -103.58 283.231 -149.013 283.452 -149.082C283.688 -149.142 295.819 -99.7763 296.063 -99.8516C296.276 -99.906 295.308 -143.522 295.521 -143.576C295.756 -143.637 307.334 -96.4796 307.57 -96.54C307.782 -96.5944 307.295 -138.385 307.507 -138.44C307.719 -138.494 318.761 -93.5751 318.988 -93.6207C319.177 -93.669 319.066 -134.136 319.264 -134.2C319.476 -134.254 330.047 -91.1748 330.274 -91.2204C330.462 -91.2687 330.759 -130.194 330.948 -130.242C331.16 -130.297 341.295 -89.0164 341.499 -89.056C341.688 -89.1043 342.293 -126.827 342.481 -126.875C342.67 -126.923 352.436 -87.1822 352.633 -87.2454C352.822 -87.2937 353.726 -123.898 353.891 -123.941C354.08 -123.989 363.483 -85.6634 363.68 -85.7266C363.846 -85.7689 365.039 -121.342 365.204 -121.384C365.393 -121.432 374.515 -84.2539 374.703 -84.3022C374.869 -84.3445 376.255 -119.163 376.429 -119.22C376.618 -119.268 385.561 -82.8355 385.735 -82.8926C385.9 -82.9349 387.426 -117.21 387.591 -117.253C387.78 -117.301 396.512 -81.6941 396.686 -81.7513C396.851 -81.7936 398.542 -115.471 398.693 -115.522C398.858 -115.564 407.456 -80.5764 407.636 -80.6099C407.801 -80.6522 409.602 -113.905 409.767 -113.947C409.932 -113.989 418.424 -79.4647 418.589 -79.507C418.754 -79.5493 420.639 -112.471 420.805 -112.514C420.97 -112.556 429.341 -78.5033 429.506 -78.5456C429.671 -78.5879 431.635 -111.203 431.785 -111.254C431.95 -111.297 440.243 -77.5507 440.408 -77.593C440.573 -77.6353 442.591 -110.038 442.757 -110.081C442.922 -110.123 451.148 -76.6365 451.313 -76.6788C451.478 -76.7211 453.52 -109.03 453.686 -109.072C453.851 -109.114 462.032 -75.7546 462.206 -75.8117C462.371 -75.854 464.443 -108.045 464.608 -108.087C464.774 -108.129 472.925 -74.8875 473.105 -74.9211C473.27 -74.9634 475.33 -107.201 475.495 -107.244C475.66 -107.286 483.838 -73.9882 484.003 -74.0305C484.168 -74.0728 486.217 -106.358 486.382 -106.4C486.547 -106.443 494.743 -73.0739 494.908 -73.1162C495.073 -73.1585 497.073 -105.632 497.23 -105.66C497.395 -105.702 505.639 -72.1449 505.804 -72.1872C505.969 -72.2295 507.921 -104.892 508.086 -104.934C508.251 -104.977 516.574 -71.1127 516.739 -71.155C516.904 -71.1973 518.777 -104.167 518.943 -104.209C519.108 -104.251 527.509 -70.0805 527.674 -70.1228C527.84 -70.1651 529.619 -103.45 529.784 -103.492C529.949 -103.534 538.46 -68.9392 538.625 -68.9815C538.79 -69.0238 540.47 -102.748 540.635 -102.79C540.8 -102.833 549.443 -67.7183 549.608 -67.7606C549.773 -67.8029 551.32 -102.046 551.485 -102.088C551.674 -102.137 560.418 -66.4826 560.592 -66.5397C560.766 -66.5968 562.162 -101.329 562.327 -101.372C562.516 -101.42 571.453 -65.0111 571.633 -65.0446C571.798 -65.0869 573.034 -100.495 573.207 -100.552C573.396 -100.6 582.494 -63.5159 582.683 -63.5642C582.848 -63.6065 583.899 -99.6835 584.088 -99.7319C584.277 -99.7802 593.592 -61.8468 593.781 -61.8952C593.969 -61.9435 594.78 -98.8637 594.969 -98.912C595.158 -98.9603 604.712 -60.0449 604.915 -60.0845C605.104 -60.1329 605.709 -97.8551 605.883 -97.9122C606.072 -97.9605 615.843 -58.1959 616.047 -58.2355C616.236 -58.2839 616.635 -96.8081 616.824 -96.8565C617.036 -96.9108 627.081 -55.9843 627.284 -56.0239C627.473 -56.0722 627.562 -95.7611 627.765 -95.8007C627.977 -95.8551 638.318 -53.7727 638.521 -53.8123C638.71 -53.8606 638.524 -94.5726 638.736 -94.627C638.949 -94.6814 649.658 -51.0597 649.885 -51.1053C650.098 -51.1597 649.538 -93.2338 649.741 -93.2734C649.977 -93.3338 661.476 -46.4832 661.712 -46.5436C661.924 -46.598 660.528 -91.8889 660.74 -91.9433C661.448 -92.1246 695.975 48.5453 696.682 48.364C697.39 48.1827 671.07 -90.4292 671.754 -90.6045C672.438 -90.7797 706.677 48.6191 707.37 48.429C708.063 48.239 682.156 -88.8074 682.84 -88.9826C683.524 -89.1578 717.37 48.7077 718.069 48.5412C718.768 48.3747 693.257 -87.1767 693.917 -87.3459C694.578 -87.5151 728.121 48.9702 728.79 48.7862C729.459 48.6022 704.328 -85.5635 704.988 -85.7327C705.649 -85.9019 738.908 49.4746 739.577 49.2906C740.247 49.1066 715.468 -83.7294 716.129 -83.8986C716.789 -84.0678 749.719 49.973 750.379 49.8038C751.04 49.6346 726.648 -81.792 727.285 -81.9552C727.922 -82.1183 760.597 50.8312 761.257 50.662C761.918 50.4928 737.804 -79.8487 738.449 -80.0267C739.095 -80.2046 771.516 51.7543 772.168 51.5999C772.82 51.4455 749.005 -77.7786 749.642 -77.9418C750.279 -78.1049 782.446 52.8632 783.107 52.6941C783.767 52.5249 760.26 -75.4962 760.888 -75.6446C761.516 -75.7929 793.478 54.2728 794.123 54.0949C794.769 53.9169 771.507 -73.199 772.143 -73.3622C772.639 -73.4891 796.71 24.5498 797.197 24.4377C797.683 24.3257 782.945 -70.8882 783.402 -71.0178C783.859 -71.1474 807.537 25.1574 808.008 25.0366C808.48 24.9157 794.297 -68.2284 794.745 -68.3432C795.194 -68.458 818.414 26.0157 818.886 25.8948C819.358 25.774 805.655 -65.545 806.103 -65.6598C806.552 -65.7746 829.394 27.1745 829.857 27.0685C830.32 26.9625 817.013 -62.8616 817.461 -62.9764C817.91 -63.0912 840.426 28.5842 840.883 28.4545C841.308 28.3458 828.471 -59.8392 828.895 -59.9479C829.32 -60.0567 851.549 30.3476 851.997 30.2327C852.421 30.124 839.917 -56.7635 840.341 -56.8723C840.766 -56.9811 862.723 32.3617 863.171 32.2469C863.595 32.1381 851.402 -53.5848 851.826 -53.6935C852.274 -53.8083 874.023 34.7708 874.456 34.6472C874.881 34.5385 862.953 -50.1465 863.378 -50.2553C863.826 -50.3701 885.381 37.4542 885.814 37.3306C886.215 37.2279 874.519 -46.6995 874.92 -46.8022C875.345 -46.911 896.833 40.5534 897.266 40.4298C897.667 40.3271 886.134 -42.9634 886.535 -43.0661C886.96 -43.1749 908.384 43.9917 908.809 43.8829C909.21 43.7802 897.78 -39.1093 898.196 -39.2033C898.62 -39.312 920.024 47.8221 920.463 47.7221C920.864 47.6194 909.464 -35.1521 909.865 -35.2548C910.313 -35.3696 931.796 52.1716 932.235 52.0716C932.636 51.9688 921.23 -30.8263 921.64 -30.9438C922.088 -31.0586 943.656 56.8129 944.095 56.7129C944.496 56.6102 933.014 -26.53 933.415 -26.6327C934.005 -26.7838 963.363 92.7755 963.967 92.6332C964.533 92.4881 944.709 -21.8464 945.275 -21.9915C945.794 -22.1244 970.903 80.211 971.422 80.0781C971.894 79.9572 956.69 -17.073 957.171 -17.2087C957.595 -17.3174 978.452 67.6317 978.876 67.523C979.277 67.4202 968.71 -12.1964 969.088 -12.2931C969.418 -12.3777 985.977 55.0585 986.322 54.9827C986.628 54.9041 980.816 -6.88917 981.123 -6.96773C981.359 -7.02816 993.532 42.5029 993.782 42.4512C993.995 42.3968 992.945 -1.58795 993.158 -1.64233C993.323 -1.68463 1001.09 29.9472 1001.24 29.8961C1001.35 29.8659 1005.27 4.53008 1005.4 4.50864C1005.47 4.49051 1008.64 17.3679 1008.7 17.3646" stroke="url(#paint1_linear_1273_10010)" stroke-width="1.89404" stroke-linecap="round" stroke-linejoin="round"/>
<path d="M438.767 608.841C438.951 608.776 451.051 644.093 451.235 644.027C451.786 643.832 421.386 530.587 421.936 530.392C422.74 530.108 478.658 693.057 479.468 692.757C480.478 692.399 417.255 489.438 418.264 489.08C419.366 488.689 495.508 710.609 496.625 710.226C497.887 709.779 416.226 456.386 417.488 455.939C418.796 455.475 509.635 720.186 510.959 719.73C512.405 719.218 416.836 427.778 418.282 427.266C419.728 426.753 522.477 726.06 523.968 725.532C525.552 724.97 420.257 406.958 421.841 406.396C423.424 405.835 534.428 729.278 536.043 728.694C537.657 728.109 425.797 391.935 427.457 391.334C429.117 390.733 545.84 730.789 547.523 730.18C549.206 729.571 432.345 379.721 434.082 379.118C435.819 378.515 556.78 730.969 558.532 730.335C560.283 729.701 439.689 369.678 441.479 369.044C443.269 368.409 567.351 730 569.149 729.35C570.947 728.7 447.504 360.929 449.34 360.278C451.176 359.627 577.605 728.098 579.441 727.447C581.278 726.796 455.561 352.829 457.436 352.178C459.311 351.526 587.582 725.376 589.441 724.718C591.3 724.059 463.732 345.012 465.614 344.345C467.497 343.679 597.34 722.112 599.238 721.453C601.135 720.793 471.945 337.349 473.85 336.674C475.755 335.999 606.967 718.404 608.872 717.729C610.777 717.054 480.27 329.968 482.198 329.285C484.126 328.602 616.504 714.443 618.432 713.76C620.36 713.077 488.58 322.542 490.523 321.866C492.467 321.19 625.985 710.322 627.928 709.646C629.872 708.971 496.873 315.069 498.824 314.378C500.775 313.687 635.416 706.063 637.367 705.372C639.341 704.672 505.109 307.436 507.083 306.737C509.057 306.037 644.848 701.804 646.822 701.104C648.796 700.405 513.263 299.574 515.26 298.866C516.454 298.443 599.341 539.983 600.55 539.568C601.759 539.152 522.141 291.235 523.357 290.804C524.413 290.43 597.466 503.343 598.538 502.976C599.609 502.609 530.279 282.888 531.381 282.497C532.368 282.148 600.801 481.584 601.803 481.242C602.806 480.9 538.297 274.312 539.307 273.954C540.248 273.62 605.487 463.752 606.436 463.403C607.384 463.054 546.164 265.492 547.151 265.142C548.069 264.817 610.84 447.762 611.742 447.43C612.645 447.097 553.94 256.342 554.882 256.009C555.754 255.7 616.552 432.86 617.44 432.558C618.327 432.257 561.621 246.994 562.531 246.685C563.381 246.384 622.452 418.524 623.316 418.231C624.181 417.937 569.139 237.226 570.034 236.909C570.86 236.616 628.489 404.54 629.331 404.255C630.173 403.969 576.6 227.297 577.472 226.988C578.299 226.695 634.625 390.908 635.452 390.615C636.278 390.323 583.842 216.748 584.698 216.432C585.502 216.147 641.004 377.888 641.808 377.603C642.611 377.319 591.059 206.131 591.908 205.83C592.712 205.545 647.433 365.082 648.237 364.798C649.04 364.513 598.268 195.49 599.102 195.182C599.882 194.905 654.114 352.95 654.902 352.658C655.689 352.366 605.469 184.827 606.28 184.526C607.06 184.25 660.845 341.032 661.641 340.763C662.437 340.494 612.818 174.653 613.644 174.36C614.471 174.068 667.769 329.588 668.55 329.312C669.33 329.035 620.214 164.541 621.033 164.263C621.852 163.986 674.759 318.328 675.532 318.067C676.305 317.806 627.7 154.68 628.503 154.396C629.307 154.111 681.887 307.458 682.644 307.19C683.401 306.921 635.26 145.065 636.056 144.796C636.852 144.527 689.057 296.78 689.814 296.511C690.571 296.243 642.82 135.489 643.623 135.204C644.427 134.919 696.364 286.453 697.121 286.185C697.879 285.916 650.542 126.294 651.338 126.025C652.133 125.756 703.744 276.294 704.494 276.042C705.244 275.789 658.264 117.138 659.044 116.861C659.825 116.585 711.239 266.534 711.989 266.281C712.739 266.029 666.051 108.165 666.824 107.904C667.597 107.644 718.783 256.912 719.525 256.636C720.267 256.36 673.896 99.3922 674.677 99.1156C675.457 98.8391 726.481 247.687 727.231 247.434C727.981 247.181 681.764 90.6107 682.522 90.3424C683.279 90.074 734.203 238.531 734.938 238.27C735.672 238.01 689.723 82.1588 690.496 81.8978C691.269 81.6368 742.089 229.872 742.831 229.596C743.573 229.321 697.697 73.7142 698.455 73.4459C699.212 73.1775 749.967 221.191 750.717 220.938C751.467 220.685 705.713 65.4229 706.478 65.139C707.243 64.8551 758.054 213.029 758.789 212.769C759.523 212.508 713.793 57.2768 714.551 57.0084C715.308 56.74 766.127 204.898 766.861 204.638C767.596 204.378 721.858 49.1232 722.631 48.8622C723.404 48.6012 774.338 197.158 775.088 196.905C775.838 196.652 730.044 41.2754 730.801 41.007C731.558 40.7386 782.606 189.578 783.348 189.302C784.089 189.027 738.23 33.4661 738.988 33.1977C739.745 32.9293 790.955 182.228 791.697 181.952C792.439 181.676 746.482 25.8404 747.239 25.572C747.997 25.3037 799.386 175.146 800.144 174.877C800.901 174.609 754.815 18.4443 755.58 18.1604C756.344 17.8764 807.897 168.177 808.638 167.902C809.38 167.626 763.156 11.0711 763.936 10.7946C764.717 10.5181 816.522 161.608 817.28 161.339C818.037 161.071 771.643 4.07254 772.416 3.81157C773.188 3.55059 825.156 155.061 825.914 154.792C826.671 154.524 780.13 -2.88751 780.91 -3.16403C781.691 -3.44055 833.96 148.957 834.718 148.689C835.475 148.42 788.715 -9.57213 789.495 -9.84864C790.276 -10.1252 842.757 142.908 843.53 142.647C844.303 142.386 797.349 -16.1191 798.129 -16.3956C798.91 -16.6721 851.668 137.141 852.433 136.857C853.197 136.573 806.031 -22.5667 806.811 -22.8432C807.592 -23.1198 860.659 131.566 861.432 131.305C862.205 131.044 814.819 -28.6776 815.615 -28.9467C816.411 -29.2158 869.675 126.098 870.455 125.821C871.236 125.545 823.623 -34.781 824.404 -35.0575C825.184 -35.334 878.837 121.043 879.618 120.766C880.398 120.49 832.542 -40.5245 833.322 -40.8011C834.102 -41.0776 888 115.988 888.78 115.711C889.561 115.435 841.485 -46.1608 842.273 -46.4528C843.061 -46.7449 897.276 111.254 898.057 110.977C898.837 110.701 850.477 -51.6978 851.273 -51.9669C852.069 -52.236 906.602 106.697 907.39 106.404C908.178 106.112 859.583 -56.8749 860.387 -57.1596C861.19 -57.4442 915.96 102.192 916.756 101.923C917.552 101.654 868.697 -62.0677 869.5 -62.3523C870.304 -62.637 925.464 98.1014 926.252 97.8093C927.039 97.5173 877.949 -66.8702 878.76 -67.1704C879.571 -67.4706 934.96 93.9874 935.763 93.7028C936.566 93.4181 887.249 -71.5735 888.052 -71.8582C888.856 -72.1428 944.57 90.1948 945.373 89.9101C946.176 89.6255 896.689 -75.8096 897.515 -76.1024C898.341 -76.3952 954.236 86.5628 955.047 86.2626C955.858 85.9624 906.2 -79.9547 907.003 -80.2393C907.806 -80.524 963.911 82.9538 964.73 82.6766C965.549 82.3993 915.851 -83.5941 916.67 -83.8713C917.489 -84.1485 973.749 79.8039 974.568 79.5266C975.387 79.2494 925.55 -87.1342 926.361 -87.4344C927.172 -87.7346 983.586 76.6539 984.397 76.3537C985.208 76.0535 935.42 -90.1924 936.239 -90.4696C937.058 -90.7468 993.546 73.8482 994.357 73.548C995.167 73.2478 945.315 -93.1816 946.133 -93.4589C946.952 -93.7361 1003.55 71.1573 1004.36 70.8571C1005.17 70.5569 955.421 -95.5742 956.247 -95.867C957.073 -96.1598 1013.63 68.6804 1014.45 68.3802C1015.26 68.08 965.558 -97.9134 966.385 -98.2062C967.211 -98.499 1023.81 66.4559 1024.63 66.1787C1025.45 65.9015 975.907 -99.6944 976.71 -99.979C977.513 -100.264 1034.02 64.3618 1034.84 64.0616C1035.65 63.7614 986.273 -101.352 987.076 -101.637C987.88 -101.922 1044.35 62.6274 1045.18 62.3347C1046 62.0419 996.818 -102.506 997.629 -102.806C998.439 -103.106 1054.7 60.885 1055.53 60.5922C1056.35 60.2994 1007.44 -103.468 1008.25 -103.752C1009.05 -104.037 1065.21 59.6016 1066.03 59.3243C1066.85 59.0471 1018.22 -103.994 1019.03 -104.278C1019.83 -104.563 1075.75 58.3486 1076.55 58.0639C1077.35 57.7793 1029.12 -104.198 1029.91 -104.49C1030.69 -104.782 1086.38 57.4479 1087.19 57.1633C1087.99 56.8786 1040.11 -104.089 1040.91 -104.374C1041.72 -104.658 1097.07 56.6695 1097.88 56.3848C1098.68 56.1002 1051.29 -103.529 1052.07 -103.805C1052.85 -104.082 1107.85 56.159 1108.65 55.8744C1109.45 55.5897 1062.53 -102.746 1063.31 -103.023C1064.09 -103.299 1118.71 55.847 1119.5 55.555C1120.29 55.2629 1073.9 -101.62 1074.68 -101.896C1075.46 -102.173 1129.65 55.7187 1130.43 55.4421C1131.21 55.1656 1085.29 -100.424 1086.07 -100.701C1086.85 -100.977 1140.66 55.8738 1141.45 55.6047C1142.25 55.3356 1096.73 -99.1683 1097.48 -99.4366C1098.24 -99.705 1151.75 56.166 1152.52 55.8821C1153.28 55.5982 1108.18 -97.7892 1108.93 -98.042C1109.68 -98.2949 1162.92 56.7802 1163.69 56.4963C1164.45 56.2124 1119.63 -96.3946 1120.38 -96.6474C1121.13 -96.9002 1174.11 57.4789 1174.89 57.2024C1175.67 56.9258 1131.17 -94.763 1131.91 -95.0233C1132.64 -95.2835 1185.46 58.5596 1186.24 58.2986C1187.01 58.0376 1142.73 -93.07 1143.46 -93.3303C1144.2 -93.5905 1196.83 59.6861 1197.59 59.4177C1198.34 59.1494 1154.3 -91.3311 1155.03 -91.5914C1155.77 -91.8516 1208.31 61.211 1209.08 60.9501C1209.86 60.6891 1165.92 -89.4316 1166.66 -89.6918C1167.39 -89.9521 1219.81 62.7434 1220.58 62.4824C1221.35 62.2214 1177.56 -87.5091 1178.29 -87.7693C1179.03 -88.0296 1231.43 64.6429 1232.2 64.359C1232.96 64.0751 1189.23 -85.5103 1189.97 -85.7705C1190.7 -86.0308 1243.11 66.6032 1243.86 66.3349C1244.62 66.0665 1200.91 -83.473 1201.64 -83.7333C1202.38 -83.9935 1254.86 68.87 1255.62 68.6016C1256.38 68.3332 1212.65 -81.2906 1213.38 -81.5509C1214.12 -81.8111 1266.7 71.3278 1267.46 71.0595C1268.22 70.7911 1224.4 -79.0853 1225.13 -79.3455C1225.87 -79.6058 1278.62 74.0152 1279.38 73.7468C1280.14 73.4784 1236.22 -76.6733 1236.95 -76.9336C1237.69 -77.1938 1290.64 77.0165 1291.4 76.7326C1292.17 76.4486 1248.04 -74.2229 1248.78 -74.4987C1249.52 -74.7745 1302.73 80.1858 1303.5 79.9249C1304.27 79.6639 1259.97 -71.5126 1260.7 -71.7729C1261.44 -72.0331 1314.94 83.7764 1315.72 83.4999C1316.5 83.2234 1271.89 -68.7638 1272.63 -69.0241C1273.36 -69.2843 1327.22 87.5507 1328.01 87.2586C1328.79 86.9666 1283.93 -65.6781 1284.68 -65.931C1285.46 -66.2075 1339.68 91.7759 1340.46 91.4993C1341.24 91.2228 1296.01 -62.4932 1296.77 -62.7616C1297.57 -63.0463 1352.2 96.2002 1352.99 95.9081C1353.78 95.6161 1308.27 -59.0344 1309.03 -59.3028C1309.83 -59.5874 1364.89 100.914 1365.7 100.629C1366.5 100.345 1320.53 -55.3445 1321.3 -55.6055C1322.11 -55.8901 1377.58 105.759 1378.38 105.474C1379.18 105.19 1332.94 -51.2186 1333.71 -51.5025C1334.51 -51.7872 1390.41 111.055 1391.21 110.771C1392.01 110.486 1345.45 -46.8787 1346.21 -47.147C1347.03 -47.4398 1403.23 116.367 1404.05 116.09C1404.87 115.813 1358.09 -42.1101 1358.86 -42.394C1359.68 -42.6868 1416.24 122.169 1417.06 121.876C1417.89 121.583 1370.8 -37.1578 1371.58 -37.4343C1372.41 -37.7271 1429.29 128.047 1430.11 127.754C1430.94 127.461 1383.57 -32.0449 1384.36 -32.314C1385.19 -32.6068 1442.52 134.429 1443.34 134.137C1444.17 133.844 1396.36 -26.8402 1397.15 -27.1323C1398 -27.4332 1455.77 140.958 1456.6 140.65C1457.44 140.341 1409.19 -21.5437 1410 -21.8284C1410.85 -22.1293 1469.23 148.045 1470.08 147.744C1470.93 147.443 1422.06 -16.1169 1422.86 -16.4015C1423.71 -16.7025 1482.75 155.346 1483.61 155.053C1484.42 154.768 1435.07 -10.3154 1435.88 -10.6156C1436.75 -10.9247 1496.36 162.808 1497.22 162.491C1498.04 162.198 1448.17 -4.26149 1448.98 -4.56168C1449.85 -4.87073 1509.94 170.254 1510.81 169.945C1511.64 169.652 1461.36 2.10637 1462.19 1.81358C1463.06 1.50453 1523.51 177.639 1524.38 177.33C1525.21 177.038 1474.87 9.26943 1475.69 8.97664C1476.57 8.66759 1537.17 185.277 1538.06 184.975C1538.88 184.683 1488.51 16.8227 1489.34 16.5299C1490.21 16.2209 1550.99 193.335 1551.87 193.011C1552.7 192.718 1502.23 24.621 1503.05 24.3282C1503.95 24.0111 1564.9 201.661 1565.78 201.337C1566.6 201.044 1515.99 32.557 1516.82 32.2643C1517.72 31.9471 1578.87 210.233 1579.77 209.916C1580.59 209.623 1529.85 40.7456 1530.69 40.4602C1531.59 40.143 1593.04 219.255 1593.93 218.938C1594.76 218.645 1543.73 49.0029 1544.58 48.702C1545.47 48.3848 1607.23 228.369 1608.13 228.052C1608.95 227.759 1557.77 57.6424 1558.6 57.3496C1559.49 57.0324 1621.56 237.927 1622.46 237.594C1623.31 237.294 1571.79 66.2899 1572.61 65.9971C1573.51 65.6799 1635.91 247.516 1636.82 247.206C1637.67 246.905 1585.98 75.4579 1586.82 75.1726C1587.74 74.8473 1650.47 257.678 1651.37 257.346C1652.22 257.045 1600.18 84.6719 1601.03 84.371C1601.95 84.0457 1665.04 267.887 1665.95 267.577C1666.8 267.276 1614.59 94.4212 1615.44 94.1202C1616.36 93.7949 1679.85 278.822 1680.77 278.497C1681.62 278.196 1629.03 104.262 1629.9 103.969C1630.81 103.643 1694.72 289.88 1695.66 289.562C1696.51 289.261 1644.13 115.924 1644.99 115.608C1645.9 115.282 1709.84 301.587 1710.77 301.269C1711.58 300.985 1662.17 135.74 1662.97 135.456C1663.87 135.139 1725.08 313.547 1725.97 313.245C1726.68 312.993 1685.04 169.037 1685.75 168.785C1686.53 168.508 1740.58 326.009 1741.36 325.733C1741.96 325.521 1707.88 202.226 1708.48 202.014C1709.17 201.77 1756.22 338.901 1756.9 338.673C1757.41 338.494 1730.29 234.275 1730.81 234.104C1731.41 233.892 1771.99 352.16 1772.58 351.964C1772.99 351.818 1752.33 265.23 1752.76 265.091C1753.27 264.912 1787.98 366.077 1788.48 365.898C1788.83 365.776 1774.34 296.132 1774.68 296.01C1775.1 295.863 1803.96 379.955 1804.38 379.809C1804.63 379.72 1796.22 326.651 1796.48 326.561C1796.8 326.448 1819.38 392.266 1819.71 392.136C1819.9 392.071 1816.81 353.613 1816.99 353.548C1817.24 353.458 1834.04 402.419 1834.28 402.345C1834.42 402.296 1835.33 374.784 1835.47 374.735C1835.65 374.67 1848.15 411.111 1848.33 411.046C1848.42 411.013 1852.29 391.586 1852.38 391.553C1852.52 391.505 1861.85 418.709 1861.98 418.66C1862.05 418.636 1868.05 405.053 1868.12 405.028C1868.21 404.996 1875.26 425.504 1875.37 425.479C1875.41 425.463 1883.04 416.355 1883.08 416.338C1883.15 416.314 1888.43 431.688 1888.51 431.648C1888.55 431.631 1897.38 425.92 1897.42 425.904C1897.49 425.88 1901.44 437.412 1901.5 437.403C1901.55 437.387 1911.24 434.093 1911.29 434.077C1911.33 434.061 1914.33 442.815 1914.38 442.799C1914.42 442.783 1924.69 441.134 1924.74 441.118C1924.76 441.11 1927.1 447.913 1927.14 447.912C1927.19 447.896 1937.77 447.104 1937.82 447.088C1937.84 447.079 1939.77 452.673 1939.79 452.665C1939.84 452.649 1950.51 452.148 1950.56 452.132C1950.58 452.123 1952.35 457.258 1952.37 457.25C1952.42 457.234 1963.16 456.901 1963.21 456.885C1963.23 456.876 1964.82 461.506 1964.84 461.498C1964.89 461.482 1976.28 463.001 1976.32 462.984C1976.32 462.984 1977.24 465.655 1977.27 465.647" stroke="url(#paint2_linear_1273_10010)" stroke-width="1.89404" stroke-linecap="round" stroke-linejoin="round"/>
</g>
</g>
<defs>
<linearGradient id="paint0_linear_1273_10010" x1="-48.3105" y1="145.783" x2="438.985" y2="434.331" gradientUnits="userSpaceOnUse">
<stop stop-color="#1FC7D1"/>
<stop offset="1" stop-color="#DB4AFE"/>
</linearGradient>
<linearGradient id="paint1_linear_1273_10010" x1="-447.685" y1="-455.15" x2="837.77" y2="306.023" gradientUnits="userSpaceOnUse">
<stop stop-color="#1FC7D1"/>
<stop offset="1" stop-color="#DB4AFE"/>
</linearGradient>
<linearGradient id="paint2_linear_1273_10010" x1="542.882" y1="149.21" x2="1834.56" y2="764.998" gradientUnits="userSpaceOnUse">
<stop stop-color="#1FC7D1"/>
<stop offset="1" stop-color="#DB4AFE"/>
</linearGradient>
<clipPath id="clip0_1273_10010">
<rect width="486" height="540" rx="8" fill="white"/>
</clipPath>
</defs>
</svg>
