<svg width="204" height="24" viewBox="0 0 204 24" fill="none" xmlns="http://www.w3.org/2000/svg">
<path d="M193.82 19.9997V2.59966H197.3V19.9997H193.82Z" fill="#C1C3C5"/>
<path d="M185.301 20.2877C181.365 20.2877 178.581 17.5277 178.581 13.5917C178.581 9.65566 181.365 6.89566 185.301 6.89566C189.237 6.89566 192.021 9.65566 192.021 13.5917C192.021 17.5277 189.237 20.2877 185.301 20.2877ZM185.277 17.0477C187.197 17.0477 188.541 15.6317 188.541 13.5917C188.541 11.5517 187.197 10.1117 185.301 10.1117C183.405 10.1117 182.061 11.5517 182.061 13.5917C182.061 15.6317 183.381 17.0477 185.277 17.0477Z" fill="#C1C3C5"/>
<path d="M170.302 20.2877C166.366 20.2877 163.582 17.5277 163.582 13.5917C163.582 9.65566 166.366 6.89566 170.302 6.89566C174.238 6.89566 177.022 9.65566 177.022 13.5917C177.022 17.5277 174.238 20.2877 170.302 20.2877ZM170.278 17.0477C172.198 17.0477 173.542 15.6317 173.542 13.5917C173.542 11.5517 172.198 10.1117 170.302 10.1117C168.406 10.1117 167.062 11.5517 167.062 13.5917C167.062 15.6317 168.382 17.0477 170.278 17.0477Z" fill="#C1C3C5"/>
<path d="M148.679 15.6557C148.679 14.6957 148.703 14.0717 148.751 13.3517C148.967 9.39166 151.487 6.89566 155.279 6.89566C159.527 6.89566 162.023 9.82366 162.023 13.7837C162.023 17.4317 159.335 20.1917 155.831 20.1917C154.199 20.1917 152.903 19.6157 152.135 18.6077V23.8397H148.679V15.6557ZM155.351 16.9757C157.271 16.9757 158.567 15.6077 158.567 13.5677C158.567 11.5757 157.271 10.1357 155.351 10.1357C153.455 10.1357 152.159 11.5757 152.159 13.5677C152.159 15.6557 153.407 16.9757 155.351 16.9757Z" fill="#C1C3C5"/>
<path d="M138.628 19.9997V2.59966H142.108V19.9997H138.628ZM143.308 19.9997V2.59966H146.788V19.9997H143.308Z" fill="#C1C3C5"/>
<path d="M129.443 20.2877C125.675 20.2877 123.155 17.6957 123.155 13.8077C123.155 9.63166 125.843 6.89566 129.947 6.89566C133.643 6.89566 136.259 9.39166 136.499 13.1837C136.547 14.0957 136.595 14.7677 136.667 16.4237L136.835 19.9997H133.667L133.619 18.3677C132.827 19.6397 131.363 20.2877 129.443 20.2877ZM129.875 17.1197C131.771 17.1197 133.043 15.8957 133.043 13.6397C133.043 11.5517 131.771 10.1357 129.875 10.1357C127.955 10.1357 126.635 11.5517 126.635 13.6397C126.635 15.7757 127.883 17.1197 129.875 17.1197Z" fill="#C1C3C5"/>
<path d="M114.831 20.2877C111.279 20.2877 108.711 18.0077 108.327 14.5277C108.255 13.8557 108.255 13.0637 108.255 12.5117V2.59966H111.735L111.687 8.11966C112.575 7.37566 113.847 6.89566 115.335 6.89566C119.055 6.89566 121.599 9.63166 121.599 13.6397C121.599 17.5997 118.863 20.2877 114.831 20.2877ZM114.927 17.0477C116.823 17.0477 118.143 15.6317 118.143 13.5917C118.143 11.5277 116.847 10.1117 114.927 10.1117C113.031 10.1117 111.711 11.5277 111.711 13.5917C111.711 15.6317 113.055 17.0477 114.927 17.0477Z" fill="#C1C3C5"/>
<path d="M104.444 19.9997C100.964 19.9997 98.8284 18.1037 98.8284 13.4237V4.08766H102.308V7.27966H106.58V10.3997H102.308V13.8797C102.308 16.3037 103.34 16.7837 105.164 16.7837C106.34 16.7837 106.556 16.7597 106.676 16.7597L106.292 19.9997H104.444Z" fill="#C1C3C5"/>
<path d="M90.4322 20.2877C86.4962 20.2877 83.7122 17.5277 83.7122 13.5917C83.7122 9.65566 86.4962 6.89566 90.4322 6.89566C94.3682 6.89566 97.1522 9.65566 97.1522 13.5917C97.1522 17.5277 94.3682 20.2877 90.4322 20.2877ZM90.4082 17.0477C92.3282 17.0477 93.6722 15.6317 93.6722 13.5917C93.6722 11.5517 92.3282 10.1117 90.4322 10.1117C88.5362 10.1117 87.1922 11.5517 87.1922 13.5917C87.1922 15.6317 88.5122 17.0477 90.4082 17.0477Z" fill="#C1C3C5"/>
<path d="M75.4331 20.2877C71.4971 20.2877 68.7131 17.5277 68.7131 13.5917C68.7131 9.65566 71.4971 6.89566 75.4331 6.89566C79.3691 6.89566 82.1531 9.65566 82.1531 13.5917C82.1531 17.5277 79.3691 20.2877 75.4331 20.2877ZM75.4091 17.0477C77.3291 17.0477 78.6731 15.6317 78.6731 13.5917C78.6731 11.5517 77.3291 10.1117 75.4331 10.1117C73.5371 10.1117 72.1931 11.5517 72.1931 13.5917C72.1931 15.6317 73.5131 17.0477 75.4091 17.0477Z" fill="#C1C3C5"/>
<path d="M62.8106 9.19966C62.8106 4.59166 64.3226 2.26366 68.1866 0.847656L69.4586 3.91966C67.5386 4.63966 66.5546 5.59966 66.3386 7.27966H68.3066V10.1837H66.2906V19.9997H62.8106V9.19966Z" fill="#C1C3C5"/>
<path d="M54.9997 20.2877C50.7517 20.2877 48.1838 17.6237 48.1838 13.6637C48.1838 9.72766 50.9198 6.89566 54.8558 6.89566C58.6238 6.89566 61.0957 9.55966 61.0957 13.6637C61.0957 13.9517 61.0717 14.3117 61.0477 14.5997H51.6637C51.9517 16.3757 53.0317 17.1917 55.0477 17.1917C56.4637 17.1917 57.5198 16.7357 58.2638 15.7037L60.9997 17.3357C59.6317 19.3517 57.7117 20.2877 54.9997 20.2877ZM51.8078 11.9837H57.4958C57.3038 10.7837 56.3917 10.0157 54.7837 10.0157C53.2477 10.0157 52.2398 10.7117 51.8078 11.9837Z" fill="#C1C3C5"/>
<path d="M40.716 20.2877C36.78 20.2877 34.38 17.5277 34.38 13.5917C34.38 9.58366 37.044 6.89566 40.908 6.89566C43.98 6.89566 46.62 8.64766 46.74 11.9357H43.26C43.164 10.7597 42.108 10.1117 40.884 10.1117C39.012 10.1117 37.86 11.4557 37.86 13.5917C37.86 15.7037 38.916 17.0477 40.86 17.0477C41.964 17.0477 43.092 16.5677 43.308 15.3677H46.812C46.524 18.5837 44.1 20.2877 40.716 20.2877Z" fill="#C1C3C5"/>
<path d="M29.1103 19.9997V7.27966H32.5903V19.9997H29.1103ZM29.1103 6.27166V3.31966H32.5903V6.27166H29.1103Z" fill="#C1C3C5"/>
<path d="M15.2363 9.19966C15.2363 4.59166 16.7483 2.26366 20.6123 0.847656L21.9082 4.01566C20.0842 4.61566 19.1003 5.64766 18.8123 7.27966H21.9562C22.3642 3.91966 23.9483 2.04766 27.2363 0.847656L28.5322 4.01566C26.7083 4.61566 25.7243 5.64766 25.4363 7.27966H27.3563V10.1837H25.3403V19.9997H21.8602V10.1837H18.7163V19.9997H15.2363V9.19966Z" fill="#C1C3C5"/>
<path d="M6.72 20.2877C2.784 20.2877 0 17.5277 0 13.5917C0 9.65566 2.784 6.89566 6.72 6.89566C10.656 6.89566 13.44 9.65566 13.44 13.5917C13.44 17.5277 10.656 20.2877 6.72 20.2877ZM6.696 17.0477C8.616 17.0477 9.96 15.6317 9.96 13.5917C9.96 11.5517 8.616 10.1117 6.72 10.1117C4.824 10.1117 3.48 11.5517 3.48 13.5917C3.48 15.6317 4.8 17.0477 6.696 17.0477Z" fill="#C1C3C5"/>
<path d="M201.705 13.5225C202.79 13.5225 203.462 14.1735 203.462 15.1605C203.462 15.7135 203.252 16.1545 202.874 16.4205C203.252 16.6935 203.462 17.1275 203.462 17.6805C203.462 18.6605 202.79 19.3115 201.705 19.3115H199.64V18.2965H201.642C202.251 18.2965 202.496 18.0865 202.496 17.6245C202.496 17.1275 202.251 16.9245 201.642 16.9245H199.64V15.9235H201.642C202.251 15.9235 202.496 15.7205 202.496 15.2095C202.496 14.7475 202.251 14.5375 201.642 14.5375H199.64V13.5225H201.705Z" fill="#C1C3C5"/>
<path d="M199.556 11.0027C199.556 9.85474 200.361 9.04274 201.509 9.04274C202.657 9.04274 203.462 9.85474 203.462 11.0027C203.462 12.1507 202.657 12.9627 201.509 12.9627C200.361 12.9627 199.556 12.1507 199.556 11.0027ZM200.501 10.9957C200.501 11.5557 200.914 11.9477 201.509 11.9477C202.104 11.9477 202.524 11.5557 202.524 11.0027C202.524 10.4497 202.104 10.0577 201.509 10.0577C200.914 10.0577 200.501 10.4427 200.501 10.9957Z" fill="#C1C3C5"/>
<path d="M199.556 6.79465C199.556 5.64665 200.361 4.94665 201.509 4.94665C202.678 4.94665 203.462 5.72365 203.462 6.85065C203.462 7.74665 202.951 8.51665 201.992 8.55165V7.53665C202.335 7.50865 202.524 7.20065 202.524 6.84365C202.524 6.29765 202.132 5.96165 201.509 5.96165C200.893 5.96165 200.501 6.26965 200.501 6.83665C200.501 7.15865 200.641 7.48765 200.991 7.55065V8.57265C200.053 8.48865 199.556 7.78165 199.556 6.79465Z" fill="#C1C3C5"/>
<path d="M199.64 3.34666H200.676V4.36166H199.64V3.34666Z" fill="#C1C3C5"/>
</svg>
