<svg width="115" height="21" viewBox="0 0 115 21" fill="none" xmlns="http://www.w3.org/2000/svg">
<path d="M84.5028 18.2741H84.7251C87.0849 18.2741 87.548 16.7055 87.548 15.8407V13.6105H86.1089V15.7541C86.1089 16.3467 85.8368 17.082 84.6017 17.082C83.3474 17.082 83.0821 16.3467 83.0821 15.7541V13.6105H81.6362V15.8407C81.6362 16.7055 82.0379 18.2741 84.5028 18.2741ZM108.408 18.2067H113.041V17.0643H109.847V13.6105H108.408V18.2067ZM74.3835 15.807C74.3835 14.9851 74.7109 13.5338 77.6204 13.5338H77.8864C80.7768 13.5338 81.1172 14.9851 81.1172 15.807V15.9925C81.1172 16.8014 80.7837 18.2902 77.8864 18.2902H77.6204C74.7109 18.2902 74.3835 16.8014 74.3835 15.9925V15.807ZM75.8908 15.9243C75.8908 16.4495 76.1998 17.1724 77.75 17.1724C79.2948 17.1724 79.6099 16.4679 79.6099 15.9366V15.8507C79.6099 15.3194 79.3009 14.6455 77.75 14.6455C76.1752 14.6455 75.8908 15.3194 75.8908 15.8507V15.9243ZM68.6719 16.2854C68.6719 17.1563 69.197 18.2741 71.1122 18.2741H71.4579C73.416 18.2741 73.8676 16.9831 73.8676 16.0324V13.6105H72.4209V15.9948C72.4209 16.6925 72.0682 17.1318 71.3153 17.1318H71.241C70.2466 17.1318 70.1477 16.4518 70.1293 16.2486H68.6719V16.2854ZM105.421 13.6105L107.879 18.2067H106.329L105.897 17.3664H103.111L102.697 18.2067H101.232L103.555 13.6105H105.421ZM105.362 16.3253L104.475 14.6064L103.626 16.3253H105.362ZM96.4214 13.6105H94.8152V18.2067H96.2358V15.1607L99.3562 18.2067H100.777V13.6105H99.3554V16.5008L96.4214 13.6105ZM79.6843 10.6098C79.6843 11.2032 79.4121 11.9376 78.177 11.9376C76.9227 11.9376 76.6575 11.2032 76.6575 10.6098V8.46617H75.2115V10.6964C75.2115 11.5612 75.6133 13.1298 78.0781 13.1298H78.3004C80.6602 13.1298 81.1233 11.5612 81.1233 10.6964V8.46617H79.6843V10.6098ZM105.572 9.34554H105.67C106.869 9.34554 106.973 9.71584 106.998 9.89524H108.493V9.8339C108.493 9.1416 107.999 8.38184 105.825 8.38184H105.398C103.31 8.38184 102.896 9.09867 102.896 9.78484V9.83927C102.896 10.5561 103.421 11.1372 105.139 11.1863L105.929 11.2047C106.992 11.23 107.134 11.4025 107.134 11.6685C107.134 11.9154 106.998 12.1561 105.787 12.1561H105.701C104.515 12.1561 104.354 11.6992 104.336 11.4278H102.835V11.4953C102.835 12.1009 103.113 13.1382 105.522 13.1382H105.948C108.258 13.1382 108.641 12.3601 108.641 11.6003V11.5137C108.641 10.5998 107.944 10.1858 106.213 10.149L105.441 10.136C104.496 10.1237 104.379 9.93203 104.379 9.74113C104.379 9.54947 104.459 9.34554 105.572 9.34554Z" fill="#6F7479"/>
<path d="M88.1016 13.062H89.5406V8.46582H88.1016V13.062Z" fill="#6F7479"/>
<path d="M90.4844 8.46582V13.062H91.905V10.016L95.0253 13.062H96.446V8.46582H95.0246V11.3562L92.0905 8.46582H90.4844Z" fill="#6F7479"/>
<path d="M112.054 12.1561H111.968C110.782 12.1561 110.621 11.6992 110.603 11.4278H109.102V11.4953C109.102 12.1009 109.38 13.1382 111.789 13.1382H112.215C114.526 13.1382 114.908 12.3601 114.908 11.6003V11.5137C114.908 10.5998 114.211 10.1858 112.481 10.149L111.708 10.136C110.763 10.1237 110.646 9.93204 110.646 9.74114C110.646 9.54947 110.726 9.34554 111.839 9.34554H111.937C113.136 9.34554 113.241 9.71584 113.265 9.89524H114.76V9.8339C114.76 9.1416 114.266 8.38184 112.092 8.38184H111.665C109.577 8.38184 109.163 9.0979 109.163 9.78484V9.83927C109.163 10.5561 109.688 11.1372 111.406 11.1863L112.196 11.2047C113.259 11.2292 113.401 11.4025 113.401 11.6685C113.401 11.9154 113.265 12.1561 112.054 12.1561Z" fill="#6F7479"/>
<path d="M74.5916 9.60279C74.5916 10.1954 74.0856 10.4362 73.8633 10.4983C74.1776 10.5788 74.8515 10.8509 74.8515 11.6536V11.7395C74.8515 12.4686 74.4375 13.062 72.9487 13.062H68.9766V8.46582H72.9119C74.2275 8.46582 74.5916 8.97182 74.5916 9.51615V9.60279ZM70.4156 10.1908H72.6581C73.0583 10.1908 73.1572 10.0038 73.1572 9.81669V9.80365C73.1572 9.61045 73.0583 9.43565 72.6589 9.43565H70.4156V10.1908ZM73.3489 11.5862C73.3489 11.3876 73.2569 11.1591 72.7815 11.1591H70.4156V12.0607H72.7815C73.2622 12.0607 73.3489 11.7955 73.3489 11.6099V11.5862Z" fill="#6F7479"/>
<path d="M97.3516 13.062H102.257V11.9925H98.7722V11.2389H102.115V10.1885H98.7722V9.50925H102.195V8.46582H97.3516V13.062Z" fill="#6F7479"/>
<path d="M84.5391 12.1561H84.4525C83.2665 12.1561 83.1055 11.6992 83.0871 11.4278H81.5859V11.4953C81.5859 12.1009 81.8642 13.1382 84.2731 13.1382H84.6994C87.0101 13.1382 87.3927 12.3601 87.3927 11.6003V11.5137C87.3927 10.5998 86.695 10.1858 84.9654 10.149L84.1926 10.136C83.2481 10.1237 83.13 9.93204 83.13 9.74114C83.13 9.54947 83.2105 9.34554 84.3229 9.34554H84.4218C85.6201 9.34554 85.7252 9.71584 85.7497 9.89524H87.2447V9.8339C87.2447 9.1416 86.7502 8.38184 84.5759 8.38184H84.1497C82.062 8.38184 81.648 9.0979 81.648 9.78484V9.83927C81.648 10.5561 82.1732 11.1372 83.8905 11.1863L84.6802 11.2047C85.7436 11.2292 85.8854 11.4025 85.8854 11.6685C85.8854 11.9154 85.7497 12.1561 84.5391 12.1561Z" fill="#6F7479"/>
<path d="M87.8274 5.48897C87.8274 6.29857 87.4939 7.78667 84.5967 7.78667H84.3306C81.4211 7.78667 81.0938 6.29857 81.0938 5.48897V5.30344C81.0938 4.48234 81.4211 3.03027 84.3306 3.03027H84.5967C87.487 3.03027 87.8274 4.48234 87.8274 5.30344V5.48897ZM86.3201 5.34714C86.3201 4.81584 86.0112 4.14194 84.4602 4.14194C82.8855 4.14194 82.601 4.81584 82.601 5.34714V5.42074C82.601 5.94591 82.91 6.66887 84.4602 6.66887C86.005 6.66887 86.3201 5.96431 86.3201 5.43301V5.34714Z" fill="#6F7479"/>
<path d="M78.5407 3.10645C80.1898 3.10645 80.6843 3.76118 80.6843 4.60145V4.66278C80.6843 5.48465 80.1837 6.17081 78.5407 6.17081H76.5328V7.70261H75.0938V3.10645H78.5407ZM79.1755 4.63748C79.1755 4.33081 78.9662 4.15218 78.51 4.15218H76.5328V5.13428H78.5108C78.9601 5.13428 79.1755 4.96255 79.1755 4.65588V4.63748Z" fill="#6F7479"/>
<path d="M71.6946 6.80457H71.6095C70.4235 6.80457 70.2625 6.34764 70.2441 6.07624H68.7422V6.14371C68.7422 6.74937 69.0205 7.78667 71.4294 7.78667H71.8556C74.1664 7.78667 74.5489 7.00851 74.5489 6.24874V6.16211C74.5489 5.24824 73.8513 4.83424 72.1217 4.79744L71.3488 4.78441C70.4043 4.77214 70.2863 4.58047 70.2863 4.38957C70.2863 4.19791 70.3668 3.99397 71.4792 3.99397H71.5773C72.7764 3.99397 72.8807 4.36427 72.906 4.54367H74.401V4.48234C74.401 3.79004 73.9064 3.03027 71.7322 3.03027H71.3059C69.2175 3.03027 68.8043 3.74711 68.8043 4.43327V4.48771C68.8043 5.20454 69.3295 5.78567 71.0468 5.83474L71.8365 5.85314C72.8998 5.87767 73.0416 6.05094 73.0416 6.31697C73.0416 6.56384 72.906 6.80457 71.6946 6.80457Z" fill="#6F7479"/>
<path d="M94.0376 4.37298C94.0376 5.02771 93.4879 5.28685 93.1851 5.37961C93.6551 5.50305 94.056 5.84881 94.056 6.43608V7.10921C94.056 7.48028 94.1059 7.59758 94.1427 7.67195V7.70261H92.6783C92.6354 7.64665 92.6109 7.57228 92.6109 7.41205V6.88075C92.6109 6.31878 92.364 6.07191 91.6533 6.07191H89.775V7.70261H88.3359V3.10645H92.0428C93.5746 3.10645 94.0376 3.63775 94.0376 4.29861V4.37298ZM92.5373 4.59378C92.5373 4.35458 92.3763 4.15218 91.9569 4.15218H89.7757V5.04765H91.9569C92.3648 5.04765 92.5373 4.85138 92.5373 4.59991V4.59378Z" fill="#6F7479"/>
<path d="M103.172 6.80457H103.085C101.899 6.80457 101.738 6.34764 101.72 6.07624H100.219V6.14371C100.219 6.74937 100.497 7.78667 102.906 7.78667H103.332C105.643 7.78667 106.025 7.00851 106.025 6.24874V6.16211C106.025 5.24824 105.328 4.83424 103.598 4.79744L102.825 4.78441C101.881 4.77214 101.763 4.58047 101.763 4.38957C101.763 4.19791 101.843 3.99397 102.956 3.99397H103.055C104.253 3.99397 104.358 4.36427 104.383 4.54367H105.878V4.48234C105.878 3.79004 105.383 3.03027 103.209 3.03027H102.782C100.695 3.03027 100.281 3.74711 100.281 4.43327V4.48771C100.281 5.20454 100.806 5.78567 102.523 5.83474L103.314 5.85314C104.376 5.87767 104.518 6.05094 104.518 6.31697C104.518 6.56384 104.383 6.80457 103.172 6.80457Z" fill="#6F7479"/>
<path d="M94.4297 4.19358H96.4062V7.70261H97.8582V4.19358H99.8416V3.10645H94.4297V4.19358Z" fill="#6F7479"/>
<path d="M11.1627 1.04395C6.49443 1.04395 0.288267 1.61895 0.288267 6.59078V6.82845C0.288267 12.008 7.22737 12.225 9.50743 12.2963L13.1644 12.4021C16.9748 12.4987 18.2605 13.066 18.2605 14.6484V14.6753C18.2605 16.3274 16.7264 17.0013 12.9659 17.0013H12.7267C9.55113 17.0013 7.75483 16.0652 7.3853 14.2183H0C0.122667 18.4128 4.01043 20.5395 11.5613 20.5395H13.9733C17.0261 20.5395 19.514 20.2344 21.3701 19.6318V9.10544C19.9257 8.73284 18.0903 8.52278 15.7634 8.46604L12.213 8.38631C8.79137 8.33724 7.4589 7.78218 7.4589 6.40525V6.37841C7.4589 4.76535 9.2253 4.45025 12.2766 4.45025H12.5411C15.5917 4.45025 17.2791 5.13565 17.697 6.54401H21.3693V2.13951C19.4703 1.41271 16.8306 1.04395 13.5225 1.04395H11.1627Z" fill="#6F7479"/>
<path d="M44.1824 18.0846C44.5811 18.5392 45.0411 18.954 45.5494 19.3189C44.2875 19.8839 42.5916 20.1699 40.5032 20.1699H22.3125V1.38965H40.3966C43.5078 1.38965 47.2161 2.08501 47.2161 5.39931V5.69065C47.2161 7.84652 45.3148 8.84932 44.1901 9.10078L42.1584 9.55695L44.1893 10.0192C45.0212 10.2086 46.165 10.6042 47.0421 11.4222H42.0871V12.0524C42.0871 13.7161 42.4505 16.1127 44.1824 18.0846ZM28.8982 8.64462H38.1166C40.1712 8.64462 40.6021 7.64105 40.6021 6.79925V6.74712C40.6021 5.54038 39.7657 4.92782 38.1166 4.92782H28.8989L28.8982 8.64462ZM41.3971 14.2259C41.3971 12.8406 40.4541 12.1375 38.5934 12.1375H28.8989V16.4723H38.5942C40.9118 16.4723 41.3979 15.2939 41.3979 14.3049L41.3971 14.2259Z" fill="#6F7479"/>
<path d="M59.3551 10.8587C59.3551 14.0174 57.6347 15.7562 54.5113 15.7562H54.299C50.8873 15.7562 49.8247 13.9346 49.5425 12.3629H43.0312C43.2214 19.4063 49.6821 20.4612 53.53 20.4612H55.1476C59.3106 20.4612 62.3106 19.3703 64.0632 17.2182C65.3098 15.688 65.9415 13.6019 65.9415 11.0182V1.38965H59.3559L59.3551 10.8587Z" fill="#6F7479"/>
<path d="M92.6549 18.2065C92.612 18.1506 92.5874 18.0762 92.5874 17.9152V17.3847C92.5874 16.8227 92.3398 16.5758 91.6291 16.5758H89.7515V18.2065H88.3125V13.6104H92.0193C93.5511 13.6104 94.0142 14.1417 94.0142 14.8025V14.8769C94.0142 15.5316 93.4645 15.7908 93.1617 15.8835C93.6316 16.007 94.0326 16.3527 94.0326 16.94V17.6131C94.0326 17.9842 94.0824 18.1015 94.1192 18.1751V18.2058L92.6549 18.2065ZM92.5131 15.0977C92.5131 14.8585 92.3521 14.6561 91.9327 14.6561H89.7515V15.5516H91.9327C92.3398 15.5516 92.5131 15.3553 92.5131 15.1038V15.0977Z" fill="#6F7479"/>
</svg>
