<svg width="135" height="22" viewBox="0 0 135 22" fill="none" xmlns="http://www.w3.org/2000/svg">
<path d="M131.141 17.4V0H134.621V17.4H131.141Z" fill="#C1C3C5"/>
<path d="M28.7353 4.2959C25.0393 4.2959 22.6153 6.4319 22.6153 10.3199V17.3999H26.0953V10.1759C26.0953 8.4719 27.0313 7.5359 28.7353 7.5359C30.4393 7.5359 31.3753 8.4719 31.3753 10.1759V17.3999H34.8553V10.3199C34.8553 6.4319 32.4313 4.2959 28.7353 4.2959Z" fill="#C1C3C5"/>
<path fill-rule="evenodd" clip-rule="evenodd" d="M48.5325 10.9919C48.5325 14.9279 51.3165 17.6879 55.2525 17.6879C59.1885 17.6879 61.9725 14.9279 61.9725 10.9919C61.9725 7.0559 59.1885 4.2959 55.2525 4.2959C51.3165 4.2959 48.5325 7.0559 48.5325 10.9919ZM58.4925 10.9919C58.4925 13.0319 57.1485 14.4479 55.2285 14.4479C53.3325 14.4479 52.0125 13.0319 52.0125 10.9919C52.0125 8.9519 53.3565 7.5119 55.2525 7.5119C57.1485 7.5119 58.4925 8.9519 58.4925 10.9919Z" fill="#C1C3C5"/>
<path d="M69.771 17.6879C66.147 17.6879 63.675 15.5039 63.675 12.2879V4.6799H67.155V11.8319C67.155 13.6559 68.115 14.3999 69.771 14.3999C71.499 14.3999 72.435 13.6559 72.435 11.8319V4.6799H75.915V12.2879C75.915 15.5039 73.419 17.6879 69.771 17.6879Z" fill="#C1C3C5"/>
<path d="M77.76 10.6559C77.76 6.6959 79.752 4.6799 83.64 4.6799H84.72V7.9199H83.928C81.888 7.9199 81.24 8.6399 81.24 10.6559V17.3999H77.76V10.6559Z" fill="#C1C3C5"/>
<path d="M38.7518 21.2399L40.2158 17.2799L34.8638 4.6799H38.6078L41.9918 13.2239L45.0158 4.6799H48.6638L42.3758 21.2399H38.7518Z" fill="#C1C3C5"/>
<path d="M14.6263 17.6879C11.0023 17.6879 8.53031 15.5039 8.53031 12.2879V4.6799H12.0103V11.8319C12.0103 13.6559 12.9703 14.3999 14.6263 14.3999C16.3543 14.3999 17.2903 13.6559 17.2903 11.8319V4.6799H20.7703V12.2879C20.7703 15.5039 18.2743 17.6879 14.6263 17.6879Z" fill="#C1C3C5"/>
<path d="M5.88 4.6799C1.992 4.6799 0 6.6959 0 10.6559V17.3999H3.48V10.6559C3.48 8.6399 4.128 7.9199 6.168 7.9199H6.96V4.6799H5.88Z" fill="#C1C3C5"/>
<path fill-rule="evenodd" clip-rule="evenodd" d="M115.902 10.992C115.902 14.928 118.686 17.688 122.622 17.688C126.558 17.688 129.342 14.928 129.342 10.992C129.342 7.056 126.558 4.296 122.622 4.296C118.686 4.296 115.902 7.056 115.902 10.992ZM125.862 10.992C125.862 13.032 124.518 14.448 122.598 14.448C120.702 14.448 119.382 13.032 119.382 10.992C119.382 8.952 120.726 7.512 122.622 7.512C124.518 7.512 125.862 8.952 125.862 10.992Z" fill="#C1C3C5"/>
<path fill-rule="evenodd" clip-rule="evenodd" d="M107.622 17.688C103.687 17.688 100.902 14.928 100.902 10.992C100.902 7.056 103.687 4.296 107.622 4.296C111.558 4.296 114.342 7.056 114.342 10.992C114.342 14.928 111.558 17.688 107.622 17.688ZM107.598 14.448C109.519 14.448 110.862 13.032 110.862 10.992C110.862 8.952 109.518 7.512 107.622 7.512C105.726 7.512 104.382 8.952 104.382 10.992C104.382 13.032 105.702 14.448 107.598 14.448Z" fill="#C1C3C5"/>
<path fill-rule="evenodd" clip-rule="evenodd" d="M86.072 10.752C86.024 11.472 86 12.096 86 13.056V21.24H89.456V16.008C90.224 17.016 91.52 17.592 93.152 17.592C96.656 17.592 99.344 14.832 99.344 11.184C99.344 7.224 96.848 4.296 92.6 4.296C88.808 4.296 86.288 6.792 86.072 10.752ZM95.888 10.968C95.888 13.008 94.592 14.376 92.672 14.376C90.728 14.376 89.48 13.056 89.48 10.968C89.48 8.976 90.776 7.536 92.672 7.536C94.592 7.536 95.888 8.976 95.888 10.968Z" fill="#C1C3C5"/>
</svg>
