<svg width="76" height="21" viewBox="0 0 76 21" fill="none" xmlns="http://www.w3.org/2000/svg">
<g clip-path="url(#clip0_1253_6990)">
<path d="M43.0568 7.31616C43.0568 5.11216 43.0948 3.06016 43.2088 1.16016L37.3948 2.26216V2.79416L37.9648 2.87016C38.3828 2.90816 38.6488 3.06016 38.8008 3.28816C38.9528 3.55416 39.0668 3.93416 39.1428 4.50416C39.2188 5.60616 39.2948 8.11416 39.2568 12.0662C39.2568 15.9802 39.2188 18.4502 39.1428 19.4002C41.2328 19.8562 42.8668 20.0462 44.0828 20.0462C46.3628 20.0462 48.1488 19.4002 49.4408 18.0702C50.7328 16.7782 51.4168 14.9542 51.4168 12.7122C51.4168 10.9262 50.9228 9.44416 49.9348 8.26616C48.9468 7.08816 47.6928 6.51816 46.2108 6.51816C45.2228 6.51816 44.1968 6.78416 43.0568 7.31616ZM43.1708 19.0202C43.0948 17.8042 43.0188 14.1562 43.0188 8.19016C43.3608 8.07616 43.8168 8.00016 44.3868 8.00016C45.2988 8.00016 46.0208 8.45616 46.5528 9.40616C47.0848 10.3562 47.3508 11.4962 47.3508 12.9402C47.3508 14.7262 47.0468 16.1702 46.4388 17.3862C45.8308 18.5642 45.0708 19.1722 44.1208 19.1722C43.8168 19.0962 43.5128 19.0582 43.1708 19.0202ZM15.5828 1.54016H0.382812V2.30016L1.18081 2.37616C1.78881 2.49016 2.20681 2.71816 2.47281 3.06016C2.73881 3.44016 2.89081 4.04816 2.92881 4.88416C3.23281 8.98816 3.23281 12.8262 2.92881 16.3602C2.85281 17.1962 2.70081 17.8042 2.47281 18.1842C2.20681 18.5642 1.78881 18.7922 1.18081 18.8682L0.382812 18.9822V19.7422H10.1868V18.9822L9.16081 18.9062C8.55281 18.8302 8.13481 18.5642 7.86881 18.2222C7.60281 17.8422 7.45081 17.2342 7.41281 16.3982C7.29881 14.8782 7.22281 13.1302 7.22281 11.1922L9.27481 11.2302C10.3768 11.2682 11.1368 12.1042 11.5168 13.7762H12.2768V7.58216H11.5168C11.1368 9.21616 10.4148 10.0522 9.27481 10.0902L7.22281 10.1282C7.22281 6.70816 7.29881 4.27616 7.41281 2.79416H10.4148C12.5428 2.79416 13.9868 4.16216 14.8228 6.89816L15.7348 6.63216L15.5828 1.54016ZM13.7968 13.2442C13.7968 15.2202 14.3668 16.8542 15.4688 18.1462C16.5708 19.4382 18.2048 20.0462 20.2568 20.0462C22.3088 20.0462 23.9808 19.4002 25.1968 18.0702C26.4128 16.7782 26.9828 15.1442 26.9828 13.1682C26.9828 11.1922 26.4128 9.55816 25.3108 8.26616C24.2088 6.97416 22.5748 6.36616 20.5228 6.36616C18.4708 6.36616 16.7988 7.01216 15.5828 8.34216C14.3668 9.63416 13.7968 11.2682 13.7968 13.2442ZM22.2708 8.91216C22.7268 10.0142 22.9168 11.4582 22.9168 13.2062C22.9168 17.2342 22.0808 19.2102 20.4468 19.2102C19.6108 19.2102 18.9648 18.6402 18.5088 17.5002C18.0528 16.3602 17.8628 14.9162 17.8628 13.2062C17.8628 9.21616 18.6988 7.24016 20.3328 7.24016C21.1688 7.20216 21.8148 7.77216 22.2708 8.91216ZM54.3808 18.1462C55.6348 19.4002 57.2308 20.0462 59.1308 20.0462C60.3088 20.0462 61.3348 19.8182 62.2468 19.3242C63.1588 18.8682 63.8808 18.2982 64.3748 17.6142L63.9948 17.1582C63.1588 17.8042 62.2088 18.1082 61.1068 18.1082C59.5868 18.1082 58.4088 17.6142 57.6108 16.5882C56.7748 15.5622 56.3948 14.2702 56.4708 12.5982H64.6028C64.6028 10.7742 64.1468 9.29216 63.1968 8.11416C62.2468 6.97416 60.9168 6.40416 59.2068 6.40416C57.0788 6.40416 55.4448 7.08816 54.2668 8.41816C53.0888 9.74816 52.5188 11.3822 52.5188 13.3202C52.5188 15.2962 53.1268 16.8922 54.3808 18.1462ZM57.1928 8.60816C57.6108 7.69616 58.1428 7.24016 58.8648 7.24016C60.0048 7.24016 60.5748 8.68416 60.5748 11.6102L56.5468 11.6862C56.5848 10.5462 56.7748 9.52016 57.1928 8.60816ZM74.8248 7.08816C73.7988 6.63216 72.5068 6.36616 70.9488 6.36616C69.3528 6.36616 68.0988 6.78416 67.1488 7.58216C66.1988 8.38016 65.7048 9.36816 65.7048 10.5462C65.7048 11.5722 66.0088 12.3702 66.5788 12.9402C67.1488 13.5102 68.0608 14.0042 69.2388 14.4222C70.3028 14.8022 71.0628 15.1822 71.4428 15.5242C71.8228 15.9042 72.0508 16.3222 72.0508 16.8922C72.0508 17.4242 71.8608 17.9182 71.4428 18.2982C71.0628 18.7162 70.5308 18.9062 69.8468 18.9062C68.1748 18.9062 66.9208 17.6902 66.0468 15.2582L65.4008 15.4482L65.5528 19.2482C66.9208 19.7802 68.4408 20.0462 70.1128 20.0462C71.8608 20.0462 73.1908 19.6662 74.1788 18.8682C75.1668 18.1082 75.6608 17.0062 75.6608 15.6382C75.6608 14.7262 75.4328 13.9662 74.9388 13.3962C74.4448 12.8262 73.6468 12.3322 72.5068 11.8762C71.2528 11.4202 70.3788 11.0022 69.9228 10.6222C69.4668 10.2422 69.2388 9.78616 69.2388 9.21616C69.2388 8.64616 69.3908 8.19016 69.7328 7.81016C70.0748 7.43016 70.4928 7.27816 71.0248 7.27816C72.5448 7.27816 73.6468 8.38016 74.3308 10.5462L74.9768 10.3562L74.8248 7.08816ZM38.2688 6.74616C37.7368 6.48016 37.1668 6.36616 36.5208 6.36616C35.8748 6.36616 35.2288 6.63216 34.5068 7.16416C33.7848 7.69616 33.2528 8.41816 32.8348 9.40616L32.8728 6.36616L27.0968 7.50616V8.03816L27.6668 8.07616C28.3888 8.15216 28.8068 8.72216 28.8828 9.74816C29.1108 12.1042 29.1108 14.6122 28.8828 17.2722C28.8068 18.2982 28.3888 18.8302 27.6668 18.9442L27.0968 19.0202V19.7422H35.1528V19.0202L34.1268 18.9442C33.4048 18.8682 32.9868 18.2982 32.9108 17.2722C32.6828 15.0682 32.6448 12.7122 32.8348 10.2802C33.0628 9.90016 33.5568 9.67216 34.3168 9.59616C35.0768 9.52016 35.9508 9.74816 36.8628 10.2802L38.2688 6.74616Z" fill="#6F7479"/>
</g>
<defs>
<clipPath id="clip0_1253_6990">
<rect width="76" height="20.52" fill="white" transform="translate(0 0.400391)"/>
</clipPath>
</defs>
</svg>
