<svg width="216" height="19" viewBox="0 0 216 19" fill="none" xmlns="http://www.w3.org/2000/svg">
<g clip-path="url(#clip0_1253_6992)">
<path fill-rule="evenodd" clip-rule="evenodd" d="M0 0.38913H7.75909C12.0748 0.38913 14.3314 2.6248 14.3314 5.3703C14.3314 7.26555 13.2647 8.5528 11.7856 9.23363V9.28271C13.6772 9.96355 14.7439 11.4693 14.7439 13.3883C14.7439 16.1338 12.6342 18.5389 8.07514 18.5389H0V0.38913ZM7.51731 7.58063C8.80206 7.58063 9.38518 6.92513 9.38518 6.19521C9.38518 5.4653 8.80364 4.78605 7.51731 4.78605H5.23857V7.58063H7.51731ZM7.59 14.1404C8.94745 14.1404 9.60326 13.4849 9.60326 12.6346C9.60326 11.7844 8.92374 11.1289 7.61529 11.1289H5.23857V14.142H7.59V14.1404ZM15.8579 11.1526V0.38913H21.1439V11.1035C21.1439 13.1207 22.1379 14.1895 23.8351 14.1895C25.5323 14.1895 26.599 13.1207 26.599 11.0798V0.38913H31.9102V11.1526C31.9102 15.7205 28.8556 19.0012 23.8351 19.0012C18.8146 19.0012 15.8564 15.7205 15.8564 11.1526H15.8579ZM45.3693 1.26313V5.92763C44.23 5.12646 42.2894 4.56755 40.7139 4.56755C39.2838 4.56755 38.5553 5.02988 38.5553 5.6363C38.5553 6.24271 39.3549 6.55938 40.7866 7.06921C43.2123 7.91946 46.5087 9.06105 46.5087 12.9244C46.5087 16.3745 43.9139 18.9252 39.3549 18.9252C37.0034 18.9252 34.8448 18.2444 33.5111 17.3466V12.4383C34.8211 13.507 36.8091 14.3573 38.7243 14.3573C40.3489 14.3573 41.1011 13.7493 41.1011 13.07C41.1011 12.196 39.8637 11.8065 38.3846 11.2714C36.444 10.5668 33.3657 9.3033 33.3657 5.78038C33.3657 2.59788 35.8641 -0.00195312 40.3251 -0.00195312C42.2894 -0.00195312 44.0593 0.50788 45.3693 1.26155V1.26313ZM47.8662 0.38913H53.1521V18.5389H47.8662V0.38913ZM71.9462 18.5389H66.902L60.3787 8.79663H60.355V18.5389H55.3361V0.38913H60.3803L66.9036 9.96196H66.9273V0.38913H71.9462V18.5389ZM74.1286 0.38913H86.6411V5.10271H79.4145V7.2893H85.9126V11.5659H79.4145V13.8253H86.6411V18.5389H74.1286V0.38913ZM99.9058 1.26313V5.92763C98.7664 5.12646 96.8259 4.56755 95.2503 4.56755C93.8202 4.56755 93.0917 5.02988 93.0917 5.6363C93.0917 6.24271 93.8913 6.55938 95.323 7.06921C97.7487 7.91946 101.045 9.06105 101.045 12.9244C101.045 16.3745 98.4504 18.9252 93.8913 18.9252C91.5399 18.9252 89.3812 18.2444 88.0475 17.3466V12.4383C89.3575 13.507 91.3455 14.3573 93.2608 14.3573C94.8853 14.3573 95.6375 13.7493 95.6375 13.07C95.6375 12.196 94.4002 11.8065 92.921 11.2714C90.9805 10.5668 87.9021 9.3033 87.9021 5.78038C87.9021 2.59788 90.4005 -0.00195312 94.8616 -0.00195312C96.8259 -0.00195312 98.5958 0.50788 99.9058 1.26155V1.26313ZM113.897 1.26313V5.92763C112.758 5.12646 110.818 4.56755 109.242 4.56755C107.812 4.56755 107.083 5.02988 107.083 5.6363C107.083 6.24271 107.883 6.55938 109.315 7.06921C111.74 7.91946 115.037 9.06105 115.037 12.9244C115.037 16.3745 112.442 18.9252 107.883 18.9252C105.532 18.9252 103.373 18.2444 102.039 17.3466V12.4383C103.349 13.507 105.337 14.3573 107.252 14.3573C108.877 14.3573 109.629 13.7493 109.629 13.07C109.629 12.196 108.392 11.8065 106.913 11.2714C104.972 10.5668 101.894 9.3033 101.894 5.78038C101.894 2.59788 104.392 -0.00195312 108.853 -0.00195312C110.818 -0.00195312 112.587 0.50788 113.897 1.26155V1.26313ZM121.162 18.5737H126.448V0.425547H121.162V18.5753V18.5737ZM145.239 0.425547H140.22V9.99838H140.196L133.673 0.425547H128.629V18.5753H133.648V8.83305H133.671L140.195 18.5753H145.239V0.425547ZM153.747 0.0360469C149.284 0.0360469 146.787 2.63588 146.787 5.81838C146.787 9.3413 149.867 10.6048 151.806 11.3094C153.286 11.8445 154.523 12.2325 154.523 13.108C154.523 13.7889 153.771 14.3953 152.146 14.3953C150.231 14.3953 148.241 13.545 146.933 12.4763V17.3846C148.267 18.284 150.425 18.9632 152.777 18.9632C157.336 18.9632 159.931 16.4125 159.931 12.9624C159.931 9.09905 156.633 7.95746 154.208 7.10721C152.778 6.59738 151.977 6.30605 151.977 5.6743C151.977 5.04255 152.704 4.60555 154.136 4.60555C155.711 4.60555 157.652 5.16446 158.791 5.96563V1.29955C157.481 0.54588 155.711 0.0360469 153.747 0.0360469ZM161.165 18.5737H166.451V0.425547H161.165V18.5753V18.5737ZM173.919 13.7873H174.938C177.678 13.7873 179.448 12.2325 179.448 9.51071C179.448 6.78896 177.678 5.21038 174.938 5.21038H173.919V13.7873ZM184.783 9.51071C184.783 14.978 180.66 18.5737 174.744 18.5737H168.633V0.425547H174.744C180.66 0.425547 184.783 4.04505 184.783 9.5123V9.51071ZM186.217 18.5737H198.729V13.8601H191.503V11.6007H198.001V7.32413H191.503V5.13755H198.729V0.425547H186.217V18.5753V18.5737ZM207.049 9.00088C208.383 9.00088 209.426 8.36913 209.426 7.10563C209.426 5.84213 208.383 5.21038 207.025 5.21038H205.91V9.00088H207.049ZM215.706 18.5737H209.473L206.03 12.9608H205.908V18.5737H200.622V0.425547H207.073C211.608 0.425547 214.759 2.44271 214.759 6.74305C214.759 8.44355 214.007 10.9215 211 12.185L215.704 18.5753L215.706 18.5737Z" fill="#6F7479"/>
</g>
<defs>
<clipPath id="clip0_1253_6992">
<rect width="215.706" height="19" fill="white"/>
</clipPath>
</defs>
</svg>
