<svg width="93" height="25" viewBox="0 0 93 25" fill="none" xmlns="http://www.w3.org/2000/svg">
<g clip-path="url(#clip0_1312_5655)">
<path fill-rule="evenodd" clip-rule="evenodd" d="M8.85133 8.61002L6.1556 7.4612C5.55275 7.18822 5.25702 6.84698 5.25702 6.34651C5.25702 5.51618 6.00773 5.12945 7.05418 5.12945C8.88546 5.12945 10.7509 6.22139 12.1613 7.58632V2.93419C11.3082 2.12661 9.36318 1.22803 7.24754 1.22803C3.6646 1.22803 0.84375 3.37779 0.84375 6.73324C0.84375 9.38348 2.50441 10.5778 4.54043 11.5332L7.5319 12.8527C8.21437 13.1484 8.89683 13.4896 8.89683 14.3427C8.89683 15.264 8.021 15.7304 6.63332 15.7304C4.51768 15.7304 2.51579 14.4678 0.934745 13.2963V17.8688C2.15181 18.7446 4.17645 19.5977 6.53095 19.5977C10.3073 19.5977 13.2532 17.4821 13.2532 13.8536C13.2532 11.1579 11.7518 9.84983 8.85133 8.61002Z" fill="#6F7479"/>
<path fill-rule="evenodd" clip-rule="evenodd" d="M21.2594 15.736C19.8262 15.736 18.7798 14.6213 18.7798 12.9834C18.7798 11.3455 19.8262 10.2308 21.2594 10.2308C22.6698 10.2308 23.739 11.3455 23.739 12.9834C23.739 14.6213 22.6698 15.736 21.2594 15.736ZM22.249 6.38623C20.6452 6.38623 19.5191 6.96633 18.8708 7.50092V6.68197H14.3438V24.4033H18.8708V18.4659C19.5305 19.0004 20.6452 19.5805 22.249 19.5805C25.5817 19.5805 28.2092 16.7824 28.2092 12.9834C28.2205 9.18433 25.593 6.38623 22.249 6.38623Z" fill="#6F7479"/>
<path fill-rule="evenodd" clip-rule="evenodd" d="M36.0804 15.7419C34.67 15.7419 33.669 14.6499 33.669 12.9892C33.669 11.3286 34.67 10.2366 36.0804 10.2366C37.4908 10.2366 38.4918 11.3286 38.4918 12.9892C38.4918 14.6385 37.4908 15.7419 36.0804 15.7419ZM36.0804 6.39209C32.361 6.39209 29.1875 9.12195 29.1875 12.9892C29.1875 16.8565 32.3496 19.5864 36.0804 19.5864C39.7998 19.5864 42.9733 16.8565 42.9733 12.9892C42.9619 9.12195 39.7998 6.39209 36.0804 6.39209Z" fill="#6F7479"/>
<path fill-rule="evenodd" clip-rule="evenodd" d="M58.129 14.4224V10.7826H61.0522V6.68784H58.129V2.95703L53.6019 4.27646V6.68784H52.419C50.7356 6.66509 49.473 7.22243 48.7223 8.20063V6.68784H44.1953V19.3021H48.7223V13.6262C48.7223 11.5333 50.1441 10.7826 52.419 10.7826H53.6019V14.9115C53.6019 18.0964 55.82 19.5864 58.5384 19.5864C59.3915 19.5864 60.3697 19.4385 61.0977 19.0973V15.1276C60.6313 15.4916 60.074 15.7077 59.4939 15.7077C58.7432 15.7191 58.129 15.3438 58.129 14.4224Z" fill="#6F7479"/>
<path fill-rule="evenodd" clip-rule="evenodd" d="M64.8923 0.494629H64.8468C63.4819 0.494629 62.3672 1.56382 62.3672 2.9515C62.3672 4.33918 63.4819 5.40837 64.8468 5.40837H64.8923C66.2572 5.40837 67.3719 4.33918 67.3719 2.9515C67.3719 1.5752 66.2572 0.494629 64.8923 0.494629Z" fill="#6F7479"/>
<path fill-rule="evenodd" clip-rule="evenodd" d="M62.6094 19.2903H67.1364V6.6875H62.6094V19.2903Z" fill="#6F7479"/>
<path fill-rule="evenodd" clip-rule="evenodd" d="M68.3594 12.9892C68.3594 16.8793 71.5442 19.5864 75.1499 19.5864C76.0485 19.5864 76.8561 19.484 77.5613 19.2679V15.0821C76.9243 15.4234 76.3897 15.6622 75.4456 15.6622C74.0125 15.6622 72.6703 14.6613 72.6703 12.9892C72.6703 11.3172 74.0125 10.3163 75.4456 10.3163C76.3897 10.3163 76.9357 10.5551 77.5613 10.8964V6.71057C76.8561 6.49446 76.0485 6.39209 75.1499 6.39209C71.5442 6.39209 68.3594 9.08783 68.3594 12.9892Z" fill="#6F7479"/>
<path fill-rule="evenodd" clip-rule="evenodd" d="M85.2054 15.7419C83.795 15.7419 82.794 14.6499 82.794 12.9892C82.794 11.3286 83.795 10.2366 85.2054 10.2366C86.6158 10.2366 87.6168 11.3286 87.6168 12.9892C87.6168 14.6385 86.6158 15.7419 85.2054 15.7419ZM85.2054 6.39209C81.486 6.39209 78.3125 9.12195 78.3125 12.9892C78.3125 16.8565 81.4746 19.5864 85.2054 19.5864C88.9248 19.5864 92.0983 16.8565 92.0983 12.9892C92.0983 9.12195 88.9362 6.39209 85.2054 6.39209Z" fill="#6F7479"/>
</g>
<defs>
<clipPath id="clip0_1312_5655">
<rect width="91.3365" height="24" fill="white" transform="translate(0.828125 0.5)"/>
</clipPath>
</defs>
</svg>
