<svg width="24" height="24" viewBox="0 0 24 24" fill="none" xmlns="http://www.w3.org/2000/svg">
<path d="M19.3688 16.2872C19.0916 16.9277 18.7634 17.5173 18.3831 18.0594C17.8648 18.7984 17.4405 19.3099 17.1134 19.5939C16.6064 20.0602 16.0633 20.2989 15.4816 20.3125C15.064 20.3125 14.5604 20.1937 13.9742 19.9527C13.3861 19.7127 12.8456 19.5939 12.3514 19.5939C11.8331 19.5939 11.2773 19.7127 10.6827 19.9527C10.0872 20.1937 9.60753 20.3193 9.24076 20.3318C8.68297 20.3555 8.12699 20.11 7.57203 19.5939C7.21782 19.285 6.77478 18.7554 6.24404 18.0051C5.67459 17.2039 5.20643 16.2748 4.83966 15.2156C4.44686 14.0715 4.24995 12.9636 4.24995 11.891C4.24995 10.6624 4.51544 9.60267 5.0472 8.71466C5.46512 8.00138 6.0211 7.43873 6.71695 7.02567C7.4128 6.61262 8.16467 6.40213 8.97437 6.38867C9.41741 6.38867 9.9984 6.52571 10.7204 6.79504C11.4404 7.06528 11.9026 7.20232 12.1053 7.20232C12.2568 7.20232 12.7704 7.04208 13.641 6.72262C14.4642 6.42635 15.1591 6.30368 15.7283 6.352C17.2707 6.47648 18.4295 7.08452 19.2002 8.17996C17.8207 9.0158 17.1383 10.1865 17.1519 11.6883C17.1644 12.8581 17.5887 13.8315 18.4227 14.6045C18.8007 14.9632 19.2228 15.2405 19.6925 15.4374C19.5906 15.7327 19.4831 16.0156 19.3688 16.2872ZM15.8313 2.36677C15.8313 3.28365 15.4963 4.13973 14.8286 4.93211C14.0229 5.8741 13.0483 6.41843 11.9915 6.33254C11.978 6.22254 11.9702 6.10677 11.9702 5.98512C11.9702 5.10492 12.3534 4.16293 13.0338 3.39273C13.3735 3.00276 13.8056 2.67851 14.3296 2.41985C14.8524 2.16504 15.3469 2.02413 15.812 2C15.8256 2.12257 15.8313 2.24515 15.8313 2.36676V2.36677Z" fill="white"></path>
</svg>