<svg width="24" height="24" viewBox="0 0 24 24" fill="none" xmlns="http://www.w3.org/2000/svg">
  <path d="M2.83333 16.9993C2.95833 15.5132 3.41319 14.1451 4.19791 12.8951C4.98263 11.6451 6.02777 10.652 7.33333 9.91593L5.79166 7.24927C5.70833 7.12427 5.6875 6.99232 5.72916 6.85343C5.77083 6.71455 5.86111 6.61038 5.99999 6.54093C6.11111 6.47149 6.23611 6.4576 6.37499 6.49927C6.51388 6.54093 6.625 6.62427 6.70833 6.74927L8.25 9.41593C9.44444 8.91593 10.6944 8.66593 12 8.66593C13.3056 8.66593 14.5556 8.91593 15.75 9.41593L17.2917 6.74927C17.375 6.62427 17.4861 6.54093 17.625 6.49927C17.7639 6.4576 17.8889 6.47149 18 6.54093C18.1389 6.61038 18.2292 6.71455 18.2708 6.85343C18.3125 6.99232 18.2917 7.12427 18.2083 7.24927L16.6667 9.91593C17.9722 10.652 19.0174 11.6451 19.8021 12.8951C20.5868 14.1451 21.0417 15.5132 21.1667 16.9993H2.83333ZM7.83333 14.7076C8.125 14.7076 8.37152 14.6069 8.57291 14.4055C8.7743 14.2041 8.875 13.9576 8.875 13.6659C8.875 13.3743 8.7743 13.1277 8.57291 12.9264C8.37152 12.725 8.125 12.6243 7.83333 12.6243C7.54166 12.6243 7.29513 12.725 7.09375 12.9264C6.89236 13.1277 6.79166 13.3743 6.79166 13.6659C6.79166 13.9576 6.89236 14.2041 7.09375 14.4055C7.29513 14.6069 7.54166 14.7076 7.83333 14.7076ZM16.1667 14.7076C16.4583 14.7076 16.7049 14.6069 16.9062 14.4055C17.1076 14.2041 17.2083 13.9576 17.2083 13.6659C17.2083 13.3743 17.1076 13.1277 16.9062 12.9264C16.7049 12.725 16.4583 12.6243 16.1667 12.6243C15.875 12.6243 15.6285 12.725 15.4271 12.9264C15.2257 13.1277 15.125 13.3743 15.125 13.6659C15.125 13.9576 15.2257 14.2041 15.4271 14.4055C15.6285 14.6069 15.875 14.7076 16.1667 14.7076Z" fill="black"></path>
</svg>